<?xml version="1.0" encoding="UTF-8" standalone="no"?>
<!-- Created with Inkscape (http://www.inkscape.org/) -->

<svg
   xmlns:dc="http://purl.org/dc/elements/1.1/"
   xmlns:cc="http://creativecommons.org/ns#"
   xmlns:rdf="http://www.w3.org/1999/02/22-rdf-syntax-ns#"
   xmlns:svg="http://www.w3.org/2000/svg"
   xmlns="http://www.w3.org/2000/svg"
   xmlns:sodipodi="http://sodipodi.sourceforge.net/DTD/sodipodi-0.dtd"
   xmlns:inkscape="http://www.inkscape.org/namespaces/inkscape"
   width="744.09448819"
   height="1052.3622047"
   id="svg2"
   version="1.1"
   inkscape:version="0.48.1 "
   sodipodi:docname="tank.svg">
  <defs
     id="defs4" />
  <sodipodi:namedview
     id="base"
     pagecolor="#ffffff"
     bordercolor="#666666"
     borderopacity="1.0"
     inkscape:pageopacity="0.0"
     inkscape:pageshadow="2"
     inkscape:zoom="0.98994949"
     inkscape:cx="613.39966"
     inkscape:cy="722.36264"
     inkscape:document-units="px"
     inkscape:current-layer="layer1"
     showgrid="false"
     inkscape:window-width="1600"
     inkscape:window-height="838"
     inkscape:window-x="-8"
     inkscape:window-y="-8"
     inkscape:window-maximized="1" />
  <metadata
     id="metadata7">
    <rdf:RDF>
      <cc:Work
         rdf:about="">
        <dc:format>image/svg+xml</dc:format>
        <dc:type
           rdf:resource="http://purl.org/dc/dcmitype/StillImage" />
        <dc:title />
      </cc:Work>
    </rdf:RDF>
  </metadata>
  <g
     inkscape:label="Layer 1"
     inkscape:groupmode="layer"
     id="layer1">
    <g
       id="g4031"
       transform="translate(-810,-94.285714)">
      <path
         style="fill:none;stroke:#ff0000;stroke-opacity:1"
         d="m 1036.9492,538.36392 c 5.9415,-2.69648 15.0778,-12.15218 19.6408,-20.3275 11.4157,-20.45297 12.3419,-47.92601 2.3054,-68.38133 l -2.0642,-4.20713 -2.7883,1.98545 -2.7883,1.98544 2.9116,6.15669 c 4.2439,8.97372 5.2988,15.51176 4.7252,29.28667 -0.4214,10.12178 -0.9739,13.28071 -3.5296,20.18248 -6.5359,17.65024 -17.1536,27.31752 -30.0032,27.31752 -4.9619,0 -7.2158,-0.79325 -7.2158,-2.5396 0,-1.52186 3.4872,-2.89541 4.9911,-1.96593 2.1804,1.34756 0.8163,-0.97983 -3.0025,-5.12271 -2.2063,-2.39355 -4.7646,-5.93137 -5.6852,-7.86183 -1.6203,-3.39776 -1.8532,-3.50993 -7.2886,-3.50993 -6.0887,0 -8.01476,-1.12949 -8.01476,-4.7 0,-2.12217 0.42671,-2.3 5.51906,-2.3 5.514,0 5.5185,-0.002 4.8593,-2.75 -0.3628,-1.5125 -0.7162,-2.83226 -0.7852,-2.93279 -0.069,-0.10054 -2.5396,-0.39431 -5.4902,-0.65282 -5.96163,-0.5223 -7.06524,-1.55569 -7.08765,-6.63661 -0.0152,-3.44407 -0.0309,-3.45623 -1.94228,-1.5 -1.83061,1.87359 -1.85839,2.42231 -0.55548,10.97222 2.13066,13.9818 5.76241,22.3766 13.28081,30.69851 7.6547,8.47293 20.1079,11.29622 30.008,6.8032 z"
         id="path4036" />
      <path
         style="fill:none;stroke:#ff0000;stroke-opacity:1"
         d="m 1012.1428,539.75522 c 0,-0.21615 -0.675,-0.39301 -1.5,-0.39301 -0.825,0 -1.5,0.43588 -1.5,0.96862 0,0.53273 0.675,0.70959 1.5,0.39301 0.825,-0.31659 1.5,-0.75246 1.5,-0.96862 z"
         id="path4034" />
      <path
         style="fill:none;stroke:#ff0000;stroke-opacity:1"
         d="m 1016.0089,541.49311 c -0.2013,-0.58604 -0.9346,0.1472 -1.6294,1.62941 -1.1675,2.49062 -1.1398,2.5714 0.3661,1.06552 0.8962,-0.89617 1.4647,-2.10889 1.2633,-2.69493 z"
         id="path4032" />
      <path
         style="fill:none;stroke:#ff0000;stroke-opacity:1"
         d="m 1003.6693,550.55534 c -0.3079,-0.30789 -1.1148,-6.4e-4 -1.7931,0.68278 -0.9803,0.98762 -0.8654,1.10248 0.5598,0.5598 0.9862,-0.37553 1.5412,-0.93469 1.2333,-1.24258 z"
         id="path4030" />
      <path
         style="fill:none;stroke:#ff0000;stroke-opacity:1"
         d="m 989.53585,566.78042 c 0.95235,-2.48178 0.72387,-3.41821 -0.83399,-3.41821 -1.85213,0 -2.89123,1.69188 -2.17902,3.54789 0.73462,1.91438 2.25372,1.849 3.01301,-0.12968 z"
         id="path4028" />
      <path
         style="fill:none;stroke:#ff0000;stroke-opacity:1"
         d="m 1009.6678,592.61221 c 4.2448,-4.4795 5.7706,-8.33492 6.2554,-15.80641 0.3785,-5.83358 0.087,-7.78315 -1.6816,-11.25 -1.1767,-2.30648 -2.3185,-4.19359 -2.5373,-4.19359 -0.2188,0 -1.1097,-0.27314 -1.9797,-0.60699 -1.038,-0.39831 -1.5818,-0.0545 -1.5818,1 0,2.14747 -2.6419,2.05108 -3.9199,-0.14301 -0.9707,-1.66667 -1.0207,-1.66667 -1.0496,0 -0.017,0.9625 -0.7055,1.75 -1.5305,1.75 -0.825,0 -1.5,0.675 -1.5,1.5 0,0.825 -0.5763,1.5 -1.28072,1.5 -1.5278,0 -3.65363,4.88152 -4.66065,10.70218 -0.64293,3.71624 -0.4978,4.23661 1.25508,4.5 2.17046,0.32613 3.28034,1.91836 4.10651,5.8912 0.52928,2.54501 5.05618,7.90662 6.67568,7.90662 0.4528,0 1.9959,-1.2375 3.4291,-2.75 z"
         id="path4026" />
      <path
         style="fill:none;stroke:#ff0000;stroke-opacity:1"
         d="m 999.92973,593.86221 c -2.19694,-3.11682 -3.88115,-4.5 -5.47939,-4.5 -3.02507,0 -3.07038,-2.98384 -0.0575,-3.78715 2.23815,-0.59675 2.23684,-0.60316 -0.25,-1.21752 -2.3382,-0.57764 -2.49416,-1.01092 -2.40978,-6.6945 0.17411,-11.7278 8.05909,-21.02031 16.90414,-19.92171 4.747,0.5896 7.741,3.81812 9.5575,10.30623 3.4163,12.20162 -4.5351,30.29236 -13.3225,30.31091 -0.9738,0.002 -3.1979,-2.02126 -4.94247,-4.49626 z"
         id="path4024" />
      <path
         style="fill:none;stroke:#ff0000;stroke-opacity:1"
         d="m 1007.4695,602.99909 c 10.9957,-4.5943 18.3446,-23.93642 14.3349,-37.72926 -1.6264,-5.59435 -6.1101,-11.28044 -9.825,-12.4595 -6.3235,-2.00701 -14.10595,3.26989 -19.12125,12.96524 -2.90517,5.61612 -3.15114,6.85967 -3.18194,16.08664 -0.0304,9.10182 0.20974,10.41353 2.67328,14.6041 2.49335,4.24126 7.29351,7.81484 10.57551,7.87313 0.7051,0.0125 2.7502,-0.59063 4.5445,-1.34035 z"
         id="path4022" />
      <path
         style="fill:none;stroke:#ff0000;stroke-opacity:1"
         d="m 969.33034,585.6791 c -0.72187,-0.28887 -1.58437,-0.25335 -1.91667,0.0789 -0.33229,0.33229 0.25834,0.56864 1.3125,0.52522 1.16495,-0.048 1.4019,-0.28494 0.60417,-0.60416 z"
         id="path4020" />
      <path
         style="fill:none;stroke:#ff0000;stroke-opacity:1"
         d="m 970.14284,589.92123 c 0,-1.59263 -1.81436,-3.07799 -2.69007,-2.20228 -0.82264,0.82264 0.46152,3.64326 1.65869,3.64326 0.56726,0 1.03138,-0.64844 1.03138,-1.44098 z"
         id="path4018" />
      <path
         style="fill:none;stroke:#ff0000;stroke-opacity:1"
         d="m 963.392,589.57496 c -0.62815,-1.64438 2.56261,-5.21275 4.66114,-5.21275 2.11812,0 3.99928,-6.01214 2.85176,-9.11417 -3.24651,-8.77617 -11.07139,-7.56975 -15.21433,2.3457 -2.22094,5.31546 -2.04284,8.76847 0.45227,8.76847 1.43418,0 2,0.66667 2,2.35648 0,1.95274 0.4918,2.33824 2.87044,2.25 1.90079,-0.0705 2.70433,-0.54132 2.37872,-1.39373 z"
         id="path4016" />
      <path
         style="fill:none;stroke:#ff0000;stroke-opacity:1"
         d="m 967.57281,593.47552 c 0.30141,-0.48768 -0.23454,-1.50018 -1.19098,-2.25 -1.53617,-1.2043 -1.59421,-1.17763 -0.49767,0.2287 0.68273,0.8756 0.94523,1.8881 0.58334,2.25 -0.3619,0.36189 -0.38455,0.65799 -0.0503,0.65799 0.3342,0 0.85425,-0.39901 1.15565,-0.88669 z"
         id="path4014" />
      <path
         style="fill:none;stroke:#ff0000;stroke-opacity:1"
         d="m 965.14284,594.29472 c 0,-1.68218 -0.26723,-1.78257 -1.94916,-0.73219 -1.43816,0.89815 -1.67062,1.55289 -0.88669,2.49747 1.36747,1.6477 2.83585,0.73366 2.83585,-1.76528 z"
         id="path4012" />
      <path
         style="fill:none;stroke:#ff0000;stroke-opacity:1"
         d="m 959.60062,597.11221 c -1.496,-1.7875 -3.561,-3.573 -4.58889,-3.96778 -2.35807,-0.90565 -2.43308,-3.48813 -0.11889,-4.09289 1.31691,-0.34415 1.19317,-0.48604 -0.5,-0.57333 -2.28997,-0.11806 -2.68994,-1.35345 -2.30391,-7.116 0.78892,-11.7765 12.13265,-19.33416 18.57919,-12.37822 3.31025,3.57181 4.49116,10.5824 3.14235,18.6547 -0.58768,3.51709 -1.79475,5.82415 -4.57804,8.75 -2.07895,2.18544 -4.48459,3.97352 -5.34586,3.97352 -0.86127,0 -2.78995,-1.4625 -4.28595,-3.25 z"
         id="path4010" />
      <path
         style="fill:none;stroke:#ff0000;stroke-opacity:1"
         d="m 968.7665,601.11949 c 10.02189,-8.79933 11.45522,-28.04821 2.6795,-35.98421 -5.49096,-4.96555 -14.17103,-0.85379 -18.39916,8.71571 -4.39538,9.94803 -2.93592,22.78224 3.1755,27.92466 4.20969,3.54222 7.98753,3.34461 12.54416,-0.65616 z"
         id="path4008" />
      <path
         style="fill:none;stroke:#ff0000;stroke-opacity:1"
         d="m 956.94971,606.83575 c -0.30789,-0.30789 -0.86705,0.24711 -1.24258,1.23333 -0.54268,1.4252 -0.42782,1.54006 0.5598,0.5598 0.68342,-0.67834 0.99067,-1.48524 0.68278,-1.79313 z"
         id="path4006" />
      <path
         style="fill:none;stroke:#ff0000;stroke-opacity:1"
         d="m 946.64284,611.36221 c -0.33992,-0.55 -1.04148,-1 -1.55902,-1 -0.51754,0 -0.94098,0.45 -0.94098,1 0,0.55 0.70156,1 1.55902,1 0.85746,0 1.2809,-0.45 0.94098,-1 z"
         id="path4004" />
      <path
         style="fill:none;stroke:#ff0000;stroke-opacity:1"
         d="m 1084.4499,334.0035 c -0.4843,0.71912 -0.4461,1.8863 0.3324,2.66486 0.6624,0.66232 1.5735,0.28657 2.0467,-0.58458"
         id="path4002"
         inkscape:connector-curvature="0"
         sodipodi:nodetypes="ccc" />
      <path
         style="fill:none;stroke:#ff0000;stroke-opacity:1"
         d="m 1089.2098,337.69221 c -1.8069,2.32846 -5.7342,2.49448 -7.1913,-0.70351 -0.8008,-1.75764 -0.5891,-3.61749 0.2896,-4.91794"
         id="path4000"
         inkscape:connector-curvature="0"
         sodipodi:nodetypes="ccc" />
      <path
         style="fill:none;stroke:#ff0000;stroke-opacity:1"
         d="m 1092.6472,354.35515 c 0.3423,-0.55389 -0.1005,-1.28448 -0.9841,-1.62354 -1.9146,-0.73472 -2.9817,0.0749 -2.0614,1.56407 0.8304,1.34358 2.2349,1.37101 3.0455,0.0595 z"
         id="path3998" />
      <path
         style="fill:none;stroke:#ff0000;stroke-opacity:1"
         d="m 1087.5614,357.01055 c -0.3122,-0.81367 -0.4216,-2.75491 -0.2431,-4.31387 0.2518,-2.19958 0.9037,-2.90179 2.9101,-3.13503 3.2437,-0.37705 5.1554,1.83875 4.7367,5.49009 -0.2706,2.35979 -0.8445,2.8608 -3.5791,3.12434 -2.174,0.20951 -3.4457,-0.17802 -3.8246,-1.16553 z"
         id="path3996" />
      <path
         style="fill:none;stroke:#ff0000;stroke-opacity:1"
         d="m 1094.9525,374.61221 c -0.1854,-0.9625 -0.7747,-1.75 -1.3097,-1.75 -0.5349,0 -1.1242,0.7875 -1.3096,1.75 -0.2108,1.0946 0.2797,1.75 1.3096,1.75 1.03,0 1.5205,-0.6554 1.3097,-1.75 z"
         id="path3994" />
      <path
         style="fill:none;stroke:#ff0000;stroke-opacity:1"
         d="m 1089.9255,376.78455 c -1.551,-3.40412 0.03,-5.92234 3.7173,-5.92234 3.6878,0 5.2684,2.51822 3.7174,5.92234 -0.814,1.78652 -1.9549,2.57766 -3.7174,2.57766 -1.7624,0 -2.9033,-0.79114 -3.7173,-2.57766 z"
         id="path3992" />
      <path
         style="fill:none;stroke:#ff0000;stroke-opacity:1"
         d="m 1184.0959,342.39058 c -1.0293,-1.35839 -3.2596,-1.62054 -3.9531,-1.7372 -0.4504,-0.0758 -8.0166,-1.16391 -19.5728,-2.81699 m -13.3812,-1.91202 c -4.3403,-0.6196 -8.9614,-1.27879 -13.7692,-1.96411 m -10.2068,-1.45383 c -15.16,-2.15336 -26.8495,-3.74588 -35.2717,-4.80212 m -10.4961,-1.21412 c -4.0419,-0.40245 -6.088,-0.47444 -6.2402,-0.2283 -0.3634,0.58812 1.019,6.13878 3.0722,12.33481 3.0943,9.33821 5.3277,18.18498 6.627,26.2155 m 0.4696,3.16729 c 0.1931,1.43742 0.3542,2.8457 0.4829,4.22282 0.3258,3.48706 1.086,6.51676 1.6894,6.73268 2.5537,0.91389 22.1609,3.02387 22.8411,2.45799 0.4093,-0.34047 0.2922,-5.32419 -0.2602,-11.07491 -0.3953,-4.11626 -1.08,-8.96488 -1.7354,-12.49785 m -0.6139,-2.93786 c -0.045,-0.1847 -0.089,-0.35837 -0.1329,-0.52015 -1.7205,-6.40258 -1.9421,-8.76308 -0.2525,-10.34599 m 18.291,-1.37101 c 4.7654,0.60867 11.1851,1.49462 19.9799,2.70254 l 23.5763,3.23807 m 9.8943,2.32286 c 2.052,1.20765 3.2397,2.88 4.4409,4.76598 2.2747,3.21242 4.1796,6.60334 5.833,9.97737 m 2.3992,5.23945 c 1.9221,4.46161 3.4978,8.70646 5.0186,12.25317 2.0477,4.77561 3.7431,8.9952 5.7975,9.36017 5.8124,1.85787 10.6493,2.1982 13.7687,1.06463 2.0814,-0.40043 -0.3006,-4.25399 -0.7051,-6.25646 -0.2489,-0.75037 -0.4973,-1.48322 -0.7453,-2.19921 m -1.2756,-3.5455 c -6.9395,-18.56181 -13.5898,-24.69365 -20.2959,-33.21654"
         id="path3990"
         inkscape:connector-curvature="0"
         sodipodi:nodetypes="ccccccccccccsccccccccscccccscccccc" />
      <path
         style="fill:none;stroke:#ff0000;stroke-opacity:1"
         d="m 1208.3837,370.04325 c 0.6727,1.93175 3.0247,7.49965 5.0065,13.019 m 1.0204,2.94878 c 1.5886,4.79702 2.5906,9.02975 1.5558,10.09051 -2.4496,2.51099 -17.5746,-0.068 -19.4397,-0.56352 -3.4597,-0.91914 -7.447,-12.14375 -9.4225,-16.89353 -1.627,-3.91189 -3.1825,-7.87907 -4.813,-11.51967 m -2.3904,-4.92707 c -2.927,-5.47367 -6.2656,-9.501 -10.7196,-10.24754 -7.305,-1.2244 -15.0136,-2.16569 -28.8966,-4.08802 -11.4413,-1.58423 -19.2811,-2.70072 -24.5747,-3.12345 m -7.8309,0.23838 c -3.1622,0.98504 -2.6034,3.74549 -1.4802,8.95742 m 0.5476,2.68634 c 0.8231,4.54163 1.6459,11.73008 1.9199,16.99131 l 0.5598,10.75 -4.3916,-0.12194 c -2.4154,-0.0671 -7.0917,-0.49895 -10.3917,-0.95973 l 0,2e-5 c -3.3,-0.46078 -7.883,-1.10406 -10.1844,-1.4295 l -4.1845,-0.59172 -0.6327,-5.69856 c -0.2621,-2.36076 -0.57,-4.69978 -0.9258,-7.02635 m -0.489,-3.01394 c -0.7183,-4.18714 -1.5958,-8.34677 -2.6443,-12.53373 m -1.1957,-4.52156 c -0.7258,-2.60753 -1.5188,-5.23307 -2.3818,-7.8896 -4.4418,-13.67309 -4.5784,-16.34618 -0.8807,-17.21299 0.2545,-0.0597 1.8147,0.0712 4.389,0.35247 m 9.7354,1.16204 c 10.3812,1.29917 25.2228,3.27702 40.2048,5.33839 m 9.45,1.30876 c 3.3375,0.46527 6.6361,0.92843 9.8467,1.38271 m 11.756,1.68117 c 14.3959,2.08343 25.0999,3.73771 26.1528,4.14174 0.647,0.24829 1.8829,1.24842 3.4779,2.76509 m 5.668,5.9027 c 5.7233,6.36004 12.414,14.82834 15.3285,20.54171"
         id="path3988"
         inkscape:connector-curvature="0"
         sodipodi:nodetypes="cccsssccssccccsccccscsccccssccccccsccc" />
      <path
         style="fill:none;stroke:#ff0000;stroke-opacity:1"
         d="m 1178.8089,400.48587 c -28.9247,-3.53641 -53.3299,-6.50391 -69.2631,-8.42378 m -29.3139,-2.75696 c -0.064,0.24353 -0.089,0.55151 -0.089,0.93231 0,2.3492 1.5336,2.70556 15.7266,3.65441 11.6837,0.78111 25.245,3.54233 32.3004,6.57672 3.0102,1.29461 8.2876,4.48382 11.7276,7.08713 l 6.2546,4.73329 31.2454,3.33443 c 17.185,1.83394 31.6954,3.19532 32.2454,3.02528 0.55,-0.17004 1.885,-1.62623 2.9666,-3.23599 2.5386,-3.77817 5.456,-5.0505 11.5805,-5.0505 3.6458,0 4.9529,-0.3803 4.9529,-1.44098 0,-0.79254 -0.3795,-1.67555 -0.8434,-1.96225 -0.2817,-0.17408 -7.4019,-1.16947 -18.0503,-2.54838"
         id="path3986"
         inkscape:connector-curvature="0"
         sodipodi:nodetypes="cccsssscssssscc" />
      <path
         style="fill:none;stroke:#ff0000;stroke-opacity:1"
         d="m 1220.8013,402.75686 c 10.128,1.24047 10.4386,1.87483 10.1474,5.88843 l -0.3059,4.21692 -6.212,0.29673 c -5.8483,0.27936 -6.4103,0.52824 -9.596,4.25 -4.1032,4.79369 -1.331,4.75457 -40.7913,0.57568 l -29.5994,-3.1346 -4.4006,-3.59944 c -12.0194,-9.83105 -22.565,-12.9266 -53.4007,-15.67526 l -8,-0.71311 -0.3075,-4.25 -0.1621,-2.24003 m 3.787,-1.9784 c 1.5143,0.0122 10.5119,0.97358 26.1024,2.79091 m 13.5477,1.59739 c 12.814,1.5252 28.3303,3.40634 46.0222,5.58174 m 13.3873,1.65076 c 10.7193,1.32232 23.3006,2.84462 30.4184,3.66099"
         id="path3984"
         inkscape:connector-curvature="0"
         sodipodi:nodetypes="cscssscssccccccccc" />
      <path
         style="fill:none;stroke:#ff0000;stroke-opacity:1"
         d="m 1148.6772,437.1537 c -4.2106,-10.53035 -14.6838,-22.81862 -23.0344,-27.02633 -7.2914,-3.67408 -21.2402,-5.86438 -49.5,-7.77275 l -16.5,-1.11423 -10.1378,3.53632 c -5.5758,1.94498 -14.1258,5.38648 -19,7.64777 -8.6611,4.01815 -28.3622,14.79211 -28.3622,15.51047 0,0.19897 4.3875,-1.68251 9.75,-4.18106 19.9965,-9.31693 38.6004,-16.39168 43.1039,-16.39168 3.6306,0 10.9409,4.71858 14.4513,9.32788 2.4494,3.21622 7.4638,13.12477 8.9791,17.74281 0.4166,1.26968 3.6487,1.81422 16.8656,2.84147 8.9926,0.69894 24.9001,2.03387 35.3501,2.96653 10.45,0.93265 19.1689,1.58515 19.3752,1.45001 0.2064,-0.13515 -0.397,-2.17689 -1.3408,-4.53721 z"
         id="path3982" />
      <path
         style="fill:none;stroke:#ff0000;stroke-opacity:1"
         d="m 1116.1428,441.77624 c -42.8186,-3.80408 -38.9656,-3.20518 -40.2098,-6.25012 -4.15,-10.15633 -7.0353,-15.21698 -10.8252,-18.98672 -7.486,-7.44622 -8.1008,-7.56225 -19.6101,-3.70084 -12.5006,4.19399 -28.4304,11.33846 -48.12055,21.58192 -8.39612,4.36795 -15.93362,7.94173 -16.75,7.94173 -4.1957,0 -0.24343,-3.89057 12.26569,-12.07422 16.43726,-10.75352 41.75476,-23.48458 56.24996,-28.28574 l 10.5,-3.47783 20,1.40863 c 24.3538,1.71528 32.6731,2.8978 42.7667,6.07893 7.0113,2.2097 8.4716,3.1481 15.0151,9.64899 7.3834,7.33521 13.9819,18.27672 15.349,25.45124 l 0.6192,3.25 -5.375,-0.11583 c -2.9562,-0.0637 -17.3,-1.17527 -31.875,-2.47014 z"
         id="path3980" />
      <path
         style="fill:none;stroke:#ff0000;stroke-opacity:1"
         d="m 1316.0657,452.61221 c -6.9198,-12.34192 -13.739,-19.61085 -22.6174,-24.10895 -4.5515,-2.30599 -22.7243,-5.60111 -36.3055,-6.583 -4.675,-0.33799 -10.75,-0.85434 -13.5,-1.14745 l -5,-0.53291 4.7452,3.15216 c 8.6951,5.77611 16.2394,16.42569 18.2211,25.72109 0.475,2.2279 1.3761,3.39083 2.8634,3.69546 1.1937,0.24449 13.1953,1.4264 26.6703,2.62646 13.475,1.20007 24.6875,2.34962 24.9167,2.55454 0.2292,0.20493 1.0497,0.3726 1.8234,0.3726 0.9983,0 0.4707,-1.66952 -1.8172,-5.75 z"
         id="path3978" />
      <path
         style="fill:none;stroke:#ff0000;stroke-opacity:1"
         d="m 1308.6428,459.83887 c -0.55,-0.20099 -11.3361,-1.3172 -23.9691,-2.48048 -12.633,-1.16327 -23.5455,-2.59339 -24.25,-3.17805 -0.7045,-0.58466 -1.2812,-2.02042 -1.2816,-3.19057 -10e-4,-3.97166 -5.9031,-14.6266 -10.8307,-19.55427 -2.699,-2.69893 -7.216,-6.07711 -10.0379,-7.50706 -2.8218,-1.42996 -5.1307,-3.26734 -5.1307,-4.08308 0,-2.02257 13.0638,-1.99152 31,0.0737 26.2986,3.02805 32.743,5.26491 42.1613,14.63423 6.1956,6.16332 14.8387,19.87357 14.8387,23.53802 0,2.10707 -0.4148,2.26521 -5.75,2.19196 -3.1625,-0.0434 -6.2,-0.24339 -6.75,-0.4444 z"
         id="path3976" />
      <path
         style="fill:none;stroke:#ff0000;stroke-opacity:1"
         d="m 1162.1428,457.80319 c 0,-0.79254 -0.9,-1.44098 -2,-1.44098 -2.1827,0 -2.7673,2.55808 -0.75,3.28172 1.6918,0.60684 2.75,-0.10151 2.75,-1.84074 z"
         id="path3974" />
      <path
         style="fill:none;stroke:#ff0000;stroke-opacity:1"
         d="m 1156.178,460.42795 c -1.4064,-2.62788 -1.3065,-3.65158 0.5363,-5.49431 3.9476,-3.94763 9.8537,0.005 7.5529,5.05506 -1.3883,3.04695 -6.5438,3.32689 -8.0892,0.43925 z"
         id="path3972" />
      <path
         style="fill:none;stroke:#ff0000;stroke-opacity:1"
         d="m 1187.1428,460.92123 c 0,-1.95514 -1.9383,-3.02065 -3.2,-1.75902 -0.5641,0.56415 -0.7233,1.51494 -0.3538,2.11287 0.9802,1.58602 3.5538,1.32977 3.5538,-0.35385 z"
         id="path3970" />
      <path
         style="fill:none;stroke:#ff0000;stroke-opacity:1"
         d="m 1181.7077,463.43387 c -3.6598,-4.04402 1.4062,-9.63113 6.0022,-6.61968 2.7894,1.82767 3.1434,4.69469 0.8615,6.97659 -2.1165,2.11656 -4.7491,1.97967 -6.8637,-0.35691 z"
         id="path3968" />
      <path
         style="fill:none;stroke:#ff0000;stroke-opacity:1"
         d="m 1211.9662,463.02934 c 0.218,-1.12408 -0.3521,-1.66713 -1.75,-1.66713 -1.1404,0 -2.0734,0.6 -2.0734,1.33333 0,3.06275 3.2393,3.34555 3.8234,0.3338 z"
         id="path3966" />
      <path
         style="fill:none;stroke:#ff0000;stroke-opacity:1"
         d="m 1206.2407,465.11221 c -1.3151,-3.53224 0.1914,-6.20723 3.6936,-6.5584 3.9083,-0.39189 6.0167,2.73938 4.3329,6.43489 -1.4935,3.27789 -6.8216,3.35987 -8.0265,0.12351 z"
         id="path3964" />
      <path
         style="fill:none;stroke:#ff0000;stroke-opacity:1"
         d="m 1234.6428,465.36221 c 0,-0.80994 -0.7875,-1.62427 -1.75,-1.80963 -1.2278,-0.23646 -1.75,0.30348 -1.75,1.80963 0,1.50615 0.5222,2.04609 1.75,1.80963 0.9625,-0.18536 1.75,-0.99969 1.75,-1.80963 z"
         id="path3962" />
      <path
         style="fill:none;stroke:#ff0000;stroke-opacity:1"
         d="m 1229.8928,469.28211 c -2.5336,-1.47574 -2.2941,-6.55832 0.3765,-7.9876 3.3387,-1.78681 6.8735,0.27596 6.8735,4.01108 0,4.16594 -3.5663,6.12204 -7.25,3.97652 z"
         id="path3960" />
      <path
         style="fill:none;stroke:#ff0000;stroke-opacity:1"
         d="m 1241.9404,464.42688 c -0.8701,-15.0317 -8.1953,-25.08074 -23.5545,-32.31332 -5.787,-2.72507 -8.4158,-3.16297 -35,-5.83019 -15.8087,-1.58609 -29.0654,-2.89222 -29.4593,-2.90249 -0.394,-0.0103 0.1352,1.44383 1.176,3.23133 2.5887,4.44609 6.0402,15.05868 6.0402,18.57217 0,2.26936 -1.3875,4.16534 -6.5,8.88205 -6.8381,6.3088 -7.9767,8.92471 -4.25,9.765 2.0542,0.46318 84.1057,8.17464 89.6285,8.42357 2.3503,0.10594 2.3731,0.0131 1.9191,-7.82812 z"
         id="path3958" />
      <path
         style="fill:none;stroke:#ff0000;stroke-opacity:1"
         d="m 1194.7579,470.79562 c -25.2367,-2.37765 -46.4992,-4.55872 -47.25,-4.84682 -0.8182,-0.31397 -1.3651,-2.02879 -1.3651,-4.2805 0,-3.32311 0.7458,-4.46316 6.4618,-9.87803 l 6.4617,-6.12134 -1.0331,-3.90336 c -0.5683,-2.14685 -2.6531,-7.40382 -4.633,-11.68215 -2.1906,-4.7338 -3.2392,-8.13709 -2.6786,-8.6941 1.2759,-1.26766 58.6035,4.59387 64.9212,6.63795 7.5178,2.43235 17.9171,9.56447 21.9226,15.03507 4.5656,6.23569 6.5127,12.00614 7.2617,21.52146 0.6096,7.74453 -0.3108,10.95322 -3.0567,10.65662 -0.6202,-0.067 -21.7758,-2.06715 -47.0125,-4.4448 z"
         id="path3956" />
      <path
         style="fill:none;stroke:#ff0000;stroke-opacity:1"
         d="m 965.69434,523.77937 15.48723,-10.58283 -0.6561,-6.66717 c -0.36085,-3.66694 -0.70706,-6.72791 -0.76936,-6.80216 -0.0623,-0.0743 -7.98827,5.45461 -17.61327,12.28636 -9.625,6.83174 -18.15393,12.81155 -18.95318,13.28846 -1.18235,0.70549 -0.80961,1.61479 2,4.87899 1.89925,2.20654 3.80514,4.04999 4.23532,4.09654 0.43018,0.0466 7.75139,-4.67763 16.26936,-10.49819 z"
         id="path3954" />
      <path
         style="fill:none;stroke:#ff0000;stroke-opacity:1"
         d="m 942.86856,532.06104 c -2.62585,-2.82146 -4.5845,-5.62446 -4.35256,-6.22889 0.54591,-1.42261 39.25677,-28.5604 41.62273,-29.17912 1.91689,-0.50127 2.24928,0.69426 3.53351,12.70918 l 0.58787,5.5 -16.80863,11.25331 c -9.24475,6.18933 -17.48364,11.2133 -18.30864,11.16439 -0.825,-0.0489 -3.64842,-2.39741 -6.27428,-5.21887 z"
         id="path3952" />
      <path
         style="fill:none;stroke:#ff0000;stroke-opacity:1"
         d="m 971.61609,542.16294 c 4.85182,-2.35719 5.25986,-2.94742 3.21237,-4.64668 -1.59871,-1.32681 -8.68562,3.06455 -8.68562,5.382 0,1.88489 0.11069,1.87002 5.47325,-0.73532 z"
         id="path3950" />
      <path
         style="fill:none;stroke:#ff0000;stroke-opacity:1"
         d="m 963.53688,545.94668 c -0.29875,-0.77854 -0.39713,-2.65785 -0.21861,-4.17625 0.25931,-2.20564 1.47805,-3.37875 6.06143,-5.83447 l 5.73686,-3.07375 2.47718,3 c 1.36244,1.65 2.49336,3.55802 2.51314,4.24004 0.0364,1.25536 -12.06695,7.25996 -14.63374,7.25996 -0.76619,0 -1.63751,-0.63699 -1.93626,-1.41553 z"
         id="path3948" />
      <path
         style="fill:none;stroke:#ff0000;stroke-opacity:1"
         d="m 923.69865,599.47608 c 11.80729,-5.36303 20.11291,-25.21404 17.66042,-42.20965 -1.72106,-11.92688 -8.50657,-24.19691 -12.13957,-21.9516 -1.10211,0.68114 -0.63678,1.74335 2.23183,5.09468 5.54207,6.47466 6.97574,12.04569 6.50526,25.27844 -0.46217,12.99912 -2.17238,17.85339 -8.83736,25.08405 -4.09295,4.44033 -9.00081,6.78886 -12.70776,6.08097 -0.97275,-0.18576 -2.10613,-0.37217 -2.51863,-0.41425 -1.10247,-0.11247 -0.91591,-3.07651 0.19363,-3.07651 0.51899,0 -0.38331,-1.45281 -2.00513,-3.22848 -1.62182,-1.77566 -3.19391,-4.00088 -3.49354,-4.94494 -0.37746,-1.18927 -1.8348,-1.81016 -4.74487,-2.02152 -3.48206,-0.25291 -4.25472,-0.68971 -4.51964,-2.55506 -0.27323,-1.92385 0.13603,-2.25 2.82332,-2.25 4.57876,0 3.73646,-3.31899 -1.01512,-4 l -3.48865,-0.5 0,-8.20203 c 0,-5.40931 -0.33679,-7.86456 -0.98913,-7.21087 -0.54402,0.54514 -0.95556,5.36105 -0.91454,10.70203 0.0886,11.53036 2.56893,19.17223 8.27447,25.4932 6.09849,6.75631 12.16778,8.24597 19.68501,4.83154 z"
         id="path3946" />
      <path
         style="fill:none;stroke:#ff0000;stroke-opacity:1"
         d="m 912.41789,603.41278 c -6.80621,-1.66248 -11.28439,-5.96907 -15.65024,-15.05057 -2.97468,-6.1877 -3.12481,-7.08713 -3.12481,-18.72032 0,-11.19985 0.18094,-12.40142 2.16672,-14.38895 1.30374,-1.30488 2.81196,-1.92102 3.78674,-1.54696 1.34993,0.51802 1.49397,1.49978 0.86398,5.88894 -0.41581,2.89701 -0.76984,6.84229 -0.78673,8.76729 -0.0287,3.27541 0.19331,3.52126 3.46055,3.83135 3.83284,0.36377 4.97023,1.49215 4.99343,4.95383 0.0191,2.85442 2.21344,6.39821 7.64509,12.34673 l 4.22945,4.63191 2.82038,-1.74887 c 4.32518,-2.68197 6.94322,-5.95942 9.99934,-12.5179 2.46878,-5.29803 2.79606,-7.16266 2.80778,-15.99705 0.0154,-11.57946 -1.97783,-17.30904 -8.28608,-23.81895 l -3.70065,-3.81895 2.80576,-2.43105 c 1.54317,-1.33708 3.30035,-2.43105 3.90484,-2.43105 2.23313,0 8.67561,8.06684 10.93728,13.69491 2.03504,5.06413 2.32852,7.46442 2.29923,18.80509 -0.0384,14.86429 -1.55213,20.2088 -8.20282,28.96146 -6.73433,8.86274 -14.80482,12.58334 -22.96924,10.58911 z"
         id="path3944" />
      <path
         style="fill:none;stroke:#ff0000;stroke-opacity:1"
         d="m 1257.7849,601.12427 c 8.3062,-6.09619 8.3256,-6.42038 0.3785,-6.34224 -9.0973,0.0894 -10.2516,-1.03585 -6.5468,-6.38202 l 2.7982,-4.0378 10.6743,0 10.6743,0 6.0689,-9.25 6.0689,-9.25 -8.4309,-0.60176 c -4.6371,-0.33097 -8.9328,-1.10354 -9.546,-1.71683 -0.8201,-0.8201 -0.6232,-2.206 0.7445,-5.23902 l 1.8597,-4.12394 9.7627,0.33518 c 5.6345,0.19345 10.1653,-0.0853 10.7147,-0.65922 1.4933,-1.56011 7.2092,-18.56849 6.5815,-19.58415 -0.3094,-0.50064 -3.825,-0.91026 -7.8124,-0.91026 -4.5829,0 -7.9436,-0.50724 -9.1356,-1.37886 -1.7091,-1.24973 -1.7671,-1.77494 -0.6187,-5.60772 l 1.267,-4.22885 9.6025,0.35772 9.6025,0.35771 0.8304,-3 c 0.4567,-1.65 1.1171,-6.89176 1.4676,-11.64836 l 0.6372,-8.64836 -8.5789,-0.71461 c -5.5843,-0.46517 -8.7538,-1.17045 -9.08,-2.02045 -0.8141,-2.12147 0.2205,-7.75541 1.5782,-8.59454 0.6903,-0.42661 4.7514,-0.50603 9.0247,-0.17649 l 7.7697,0.59915 -0.5323,-5.34778 c -0.2928,-2.94128 -0.63,-5.43796 -0.7494,-5.54817 -0.2567,-0.23698 -44.5899,-4.40039 -46.8566,-4.40039 -1.3047,0 -1.6543,2.29232 -2.1735,14.25 -1.946,44.82449 -16.6214,83.40335 -41.4194,108.88417 l -8.4028,8.63417 23.3421,-0.13417 23.3421,-0.13417 z"
         id="path3942" />
      <path
         style="fill:none;stroke:#ff0000;stroke-opacity:1"
         d="m 1203.1428,605.6331 c 0,-0.95101 3.5613,-5.33851 7.914,-9.75 14.6681,-14.86634 25.0209,-32.39187 32.5439,-55.09117 5.9871,-18.06516 8.6007,-32.6482 9.246,-51.59028 0.3121,-9.1633 0.882,-17.16939 1.2664,-17.79131 0.7834,-1.26758 47.6822,2.38352 51.8236,4.03449 2.1387,0.85261 2.274,1.40488 2,8.16592 l -0.2939,7.25146 -8.75,-0.34372 c -8.7463,-0.34357 -8.75,-0.34268 -8.75,2.14301 0,3.0646 1.547,3.70071 9,3.70071 8.2292,0 9.0036,0.46195 8.9802,5.35699 -0.019,4.04327 -1.4115,15.39069 -2.5634,20.89301 l -0.5757,2.75 -9.8135,0 c -9.7819,0 -11.0276,0.44442 -11.0276,3.93426 0,0.42388 3.9254,1.07241 8.723,1.44119 4.7977,0.36877 9.1482,1.09572 9.6679,1.61543 1.0872,1.08716 -0.139,5.72454 -4.5635,17.25912 l -2.9727,7.75 -10.3922,0 c -9.2509,0 -10.5058,0.21241 -11.4273,1.93426 -0.5693,1.06384 -1.0352,2.18884 -1.0352,2.5 0,0.31116 3.0375,0.57188 6.75,0.57939 8.634,0.0175 11.25,0.73493 11.25,3.08537 0,1.91662 -6.273,12.76552 -10.8614,18.78425 l -2.5792,3.38327 -9.6879,-0.53383 c -9.6787,-0.53332 -9.6904,-0.5311 -12.4667,2.36673 l -2.7789,2.90056 8.128,0 c 11.2403,0 11.817,1.62011 3.0254,8.5 -8.565,6.70266 -7.0876,6.42605 -34.5293,6.46456 -23.2784,0.0327 -25.25,-0.0996 -25.25,-1.69367 z"
         id="path3940" />
      <path
         style="fill:none;stroke:#ff0000;stroke-opacity:1"
         d="m 1087.712,602.42442 c 3.338,-1.67064 7.838,-4.59935 10,-6.50824 l 3.9308,-3.47072 -7.6909,-0.0416 c -4.2301,-0.0229 -7.961,-0.47841 -8.2909,-1.01226 -0.8903,-1.44049 2.1721,-6.78031 4.9217,-8.58192 1.8161,-1.18995 4.6632,-1.52156 11.7292,-1.36612 l 9.3309,0.20526 2.8454,-3.8933 c 2.594,-3.54944 9.6546,-16.61686 9.6546,-17.86835 0,-0.28873 -3.5449,-0.52496 -7.8775,-0.52496 -9.6939,0 -11.1052,-1.07514 -8.8436,-6.73739 l 1.5029,-3.76261 9.7061,-0.147 c 5.3384,-0.0808 10.0847,-0.53085 10.5474,-1 0.7458,-0.7562 4.5669,-13.16268 6.3455,-20.603 0.6284,-2.62889 0.4914,-2.75038 -3.1117,-2.75869 -2.073,-0.005 -6.1316,-0.29246 -9.0191,-0.63929 l -5.25,-0.6306 0,-3.78928 c 0,-6.09217 1.7288,-7.04152 11.4604,-6.29349 l 8.3169,0.63928 0.7221,-4.27386 c 1.1834,-7.00498 2.1312,-20.11436 1.4831,-20.5149 -0.3314,-0.20484 -3.7372,-0.46397 -7.5684,-0.57583 -3.8312,-0.11187 -7.9667,-0.57364 -9.19,-1.02615 -2.4427,-0.90362 -2.9043,-3.96788 -1.2522,-8.31318 0.9701,-2.55151 0.9884,-2.55502 10,-1.91536 l 9.0281,0.64084 0,-8.14975 0,-8.14974 -3.75,-0.0644 c -2.0625,-0.0354 -15.225,-0.85847 -29.25,-1.82904 -14.025,-0.97056 -25.8375,-1.59004 -26.25,-1.3766 -0.4125,0.21343 -0.7546,4.299 -0.7603,9.07904 -0.039,32.89101 -7.0913,64.58405 -20.4029,91.69098 -7.8356,15.95583 -16.3939,28.13963 -26.6475,37.93587 -4.2865,4.09529 -7.2639,7.63176 -6.6165,7.85882 0.6475,0.22706 13.1022,0.50108 27.6772,0.60894 l 26.5,0.1961 6.0692,-3.03752 z"
         id="path3938" />
      <path
         style="fill:none;stroke:#ff0000;stroke-opacity:1"
         d="m 1021.1665,605.61221 c 0.013,-0.9625 1.8632,-3.1 4.1115,-4.75 6.1531,-4.51558 16.8861,-16.37966 22.7753,-25.17547 11.2063,-16.73716 20.989,-40.58403 25.4548,-62.05026 3.2818,-15.77509 3.6543,-19.03897 4.5171,-39.58367 0.4076,-9.70605 1.0447,-17.95095 1.4157,-18.32199 1.1228,-1.12283 62.7398,3.07468 63.5139,4.32673 0.5533,0.89491 0.6567,9.0172 0.2443,19.19167 -0.046,1.13247 -1.7997,1.25903 -9.5563,0.68966 l -9.5,-0.69734 0,2.9118 0,2.91181 8.6629,0.61134 c 4.7645,0.33624 9.1289,1.07746 9.6986,1.64716 1.2965,1.29648 -0.9746,25.86755 -2.5685,27.78798 -0.8158,0.98305 -3.2084,1.1401 -9.7943,0.64293 l -8.7147,-0.65788 -0.4988,2.60926 c -0.2744,1.4351 -0.2632,2.84484 0.025,3.13277 0.2879,0.28792 3.7375,0.5235 7.6657,0.5235 10.7432,0 11.0366,0.43637 8.0685,12 -1.3412,5.225 -3.0738,11.3 -3.8503,13.5 l -1.4118,4 -10.0946,0 c -9.5593,0 -10.15,0.12179 -11.141,2.29705 -0.5755,1.26338 -1.0464,2.44284 -1.0464,2.62102 0,0.17818 4.0988,0.6446 9.1083,1.03649 l 9.1083,0.71253 -0.6173,3.08644 c -0.6987,3.49346 -5.9101,13.14867 -10.5232,19.49647 l -3.0886,4.25 -10.4256,0 -10.4257,0 -2.1362,3 -2.1362,3 8.5681,0 c 7.5115,0 8.5623,0.21582 8.5208,1.75 -0.052,1.93995 -8.0685,8.71901 -14.9841,12.67178 l -4.4686,2.55413 -32.25,0.012 c -30.0611,0.0112 -32.2484,-0.10672 -32.2263,-1.73795 z"
         id="path3936" />
      <path
         style="fill:none;stroke:#ff0000;stroke-opacity:1"
         d="m 1189.8731,339.47579 c -1.8386,-1.96263 -2.718,-4.26371 -9.8711,-5.34059 l -27.9755,-4.34175 m -10.2195,-1.58606 -4.9373,-0.76626 m -8.2541,-1.28103 -47.9461,-7.44115"
         id="path3934"
         inkscape:connector-curvature="0"
         sodipodi:nodetypes="ccccccc" />
      <path
         style="fill:none;stroke:#ff0000;stroke-opacity:1"
         d="m 1072.3143,317.40809 c -5.9227,-0.44634 -7.7688,0.73798 -11.5574,1.14525 l -21.4358,9.80572 c -12.3137,5.63286 -26.494,14.34784 -34.6783,19.85137 -18.87193,12.69043 -40.29157,28.90237 -40.9174,30.96926 -1.72585,5.69987 -4.5698,44.09349 -4.57793,61.80264 l -0.005,10.11962 -10.75,9.84885 c -15.35885,14.07136 -33.44086,31.80518 -40.44896,39.67009 l -6.02238,6.75867 -1.17114,11.24133 c -1.03312,9.91654 -1.55081,11.82483 -4.39275,16.1925 -5.95867,9.15767 -7.48657,14.71806 -7.98222,29.04919 -0.41726,12.06485 -0.25903,13.56813 2.19889,20.89015 1.45669,4.33939 3.79425,9.84484 5.1946,12.23434 3.20108,5.46223 11.5977,13.08647 15.73123,14.28417 1.7285,0.50083 9.10523,0.95119 16.39273,1.00079 12.06502,0.0821 13.25,-0.0688 13.25,-1.68757 l 3.7e-4,-1e-5 c 0,-0.97777 0.95077,-2.59183 2.11282,-3.58681 2.06536,-1.76841 2.1923,-1.73409 5.65018,1.52776 1.94554,1.83524 3.15982,2.66181 2.69838,1.83681 -0.46143,-0.825 -1.65401,-2.08802 -2.65017,-2.8067 -2.33172,-1.68223 -2.30176,-3.79285 0.0828,-5.83459 1.72211,-1.47452 1.7675,-1.92455 0.5,-4.9581 -0.7951,-1.90292 -1.39403,-6.74977 -1.39403,-11.28112 0,-7.0165 0.38152,-8.68175 3.26541,-14.25267 3.95013,-7.63064 8.21044,-10.86682 14.30575,-10.86682 5.25108,0 9.88479,3.51585 12.53759,9.51295 0.99239,2.24347 3.16618,5.29243 4.83065,6.77547 l 3.0263,2.69644 0.61132,-2.43569 c 0.4356,-1.73558 -0.13435,-3.41331 -1.98285,-5.83682 -3.1527,-4.1334 -3.22642,-5.63886 -0.44906,-9.16969 1.66543,-2.11726 2.79052,-2.63234 5.03141,-2.30344 1.98283,0.29101 2.56346,0.10076 1.8549,-0.6078 -1.52037,-1.52037 -1.2615,-3.93369 0.3554,-3.31323 0.97287,0.37333 1.23654,-0.0425 0.88336,-1.39301 -0.33779,-1.29173 0.009,-1.92518 1.05417,-1.92518 1.94015,0 3.0583,1.64548 1.69196,2.48992 -0.55897,0.34546 -1.01631,1.06909 -1.01631,1.60805 0,1.35809 3.46734,-2.09598 4.93722,-4.91831 0.91673,-1.76023 1.97536,-2.27891 4.38566,-2.14869 1.7474,0.0944 4.1736,0.12607 5.3916,0.0703 l 2.2145,-0.10127 -2.0042,-4.67544 c -1.1022,-2.57149 -1.7595,-5.31292 -1.4605,-6.09207 0.3056,-0.79628 -1.2163,-3.41604 -3.4754,-5.98249 -7.72163,-8.77221 -12.46355,-21.23952 -13.61591,-35.79848 -0.62821,-7.93686 -0.59972,-8.07293 2.05429,-9.8119 4.31204,-2.82536 6.02573,-1.85281 6.37753,3.61937 l 0.30479,4.74101 5.41,0 c 5.8735,0 6.6644,0.67586 7.7971,6.66278 0.8136,4.30025 -1.1033,5.73409 -6.8066,5.09125 -2.4605,-0.27734 -4.2304,-0.11046 -3.9329,0.37085 0.2975,0.48132 3.1713,0.87512 6.3864,0.87512 l 5.8455,0 3.0171,5.34607 c 1.6595,2.94034 5.0774,7.15957 7.5955,9.37607 2.5181,2.2165 4.5783,4.53577 4.5783,5.15393 0,3.18662 8.5936,-1.47431 13.9836,-7.58426 8.8531,-10.03581 13.2783,-22.87086 13.3745,-38.79181 0.071,-11.69787 -1.422,-18.75518 -5.684,-26.87255 l -3.0834,-5.87256 3.2205,-2.87744 c 4.9906,-4.45917 7.5489,-3.88682 10.6049,2.37255 1.4097,2.8875 3.5226,9.05258 4.6953,13.70018 1.8355,7.27413 2.0594,10.33598 1.6092,22 -0.8571,22.20663 -7.1784,37.92124 -20.0129,49.75167 -6.2851,5.79338 -12.0282,8.47392 -19.4283,9.06792 -3.4536,0.27723 -6.2794,0.94869 -6.2794,1.49214 0,0.55797 -1.2679,0.7345 -2.9128,0.40553 -3.7595,-0.75191 -5.4909,1.14049 -4.1853,4.57454 0.5197,1.36689 1.6192,2.74401 2.4434,3.06028 2.6806,1.02864 6.7671,9.41825 7.6582,15.72228 1.0031,7.09661 -0.1461,15.80949 -2.9471,22.34393 -2.2225,5.18496 -8.1788,12.12638 -12.1816,14.19627 -3.912,2.02301 -10.77391,1.79418 -14.50984,-0.48388 -3.87576,-2.36332 -8.04157,-10.65867 -8.95441,-17.83086 -0.50559,-3.97243 -1.07486,-5.25 -2.33936,-5.25 -0.91914,0 -2.21117,-0.54 -2.87117,-1.2 -0.66667,-0.66667 -1.2,-0.75556 -1.2,-0.2 0,0.55 0.52937,1.52937 1.17637,2.17637 0.90183,0.90183 0.78514,1.60868 -0.5,3.02874 -0.922,1.01881 -1.67637,2.56713 -1.67637,3.44073 0,3.24403 -3.83394,10.36808 -7.49,13.91758 -3.69875,3.59094 -8.76166,5.44471 -11.74434,4.30015 -0.96626,-0.37079 -1.69458,0.15663 -2.03992,1.47721 -0.29541,1.12964 -1.59205,2.47656 -2.88142,2.99317 -1.47841,0.59234 53.24816,0.96269 148.16406,1.00266 l 150.5083,0.0634 6.1267,-4.00317 c 3.3696,-2.20174 9.6659,-7.51933 13.9916,-11.81688 25.3594,-25.19399 39.365,-63.92915 39.365,-108.87089 l 0,-11.20319 7.5,-5.2365 c 8.7433,-6.10457 8.9261,-6.76818 4.5325,-16.45794 -6.3544,-14.01432 -16.1149,-25.85918 -26.1593,-31.74561 -7.4061,-4.34027 -23.2787,-7.13432 -52.5385,-9.24835 -10.1144,-0.73076 -10.2738,-0.86058 -10.3363,-8.41747 -0.043,-5.17518 -1.55,-6.14463 -8.2878,-6.93907 m -4.6491,-0.78433 c -0.8994,-0.19885 -1.5044,-0.38619 -1.6466,-0.52843 -0.3429,-0.34288 -1.2497,-3.91399 -2.015,-7.93579 -0.2272,-1.19366 -0.4775,-2.34757 -0.7465,-3.46331 m -0.7384,-2.81627 c -1.4967,-5.27971 -3.3642,-9.62993 -5.0262,-13.24948 m -2.1568,-4.66116 c -1.02,-2.26503 -3.1191,-5.38855 -4.6929,-7.50235 -1.179,-1.58369 -9.6616,-11.85421 -10.4249,-12.14712"
         id="path3932"
         inkscape:connector-curvature="0"
         sodipodi:nodetypes="ccsssccsscsssssssccssssssssssscsssssscsssssccccsssscsssssccssscscccsssssscssscssssssssssssscssscssssccccccccccc" />
      <path
         style="fill:none;stroke:#ff0000;stroke-opacity:1"
         d="m 1079.7116,315.35648 c 6.8382,1.15318 22.2203,3.57426 50.066,7.75953 m 8.0925,1.21341 c 0.8229,0.12312 1.6554,0.24758 2.4975,0.3734 m 9.0236,1.34527 c 3.8952,0.57951 7.9718,1.18453 12.236,1.81584 20.7549,3.07272 24.4796,3.89419 27.6644,6.10123 1.03,1.08468 1.9928,2.10132 2.8964,3.05923 m 5.7919,6.23292 c 6.1171,6.73425 8.7957,10.39448 14.4111,18.53496 0.5376,0.83643 1.0552,1.6906 1.5532,2.56377 m 3.3286,6.81371 c 1.255,3.0262 2.3307,6.26569 3.239,9.75628 m 0.9241,3.90479 c 0.2797,1.30503 0.5388,2.6434 0.778,4.01681 l 1.1209,6.43697 2.4491,0.27708 m 4.195,0.47755 c 7.2611,0.88157 8.2901,2.02814 9.0272,8.89226 l 0.6369,5.93072 11,0.69595 c 24.4547,1.54721 40.667,4.37434 48.9174,8.53032 10.139,5.10732 19.9812,16.67771 27.6154,32.46424 6.0166,12.44156 5.4565,14.43684 -6.1418,21.87946 l -4.891,3.13852 -0.01,7.64576 c -0.041,36.63367 -9.4739,71.73481 -25.8207,96.08178 -6.5033,9.68612 -18.3713,21.96533 -27.5829,28.53856 l -6.3413,4.52541 -172.873,-0.0442 c -168.24405,-0.043 -172.96994,-0.0954 -176.49092,-1.95609 l 10e-4,0 c -5.14885,-2.72097 -12.70131,-11.46714 -16.05604,-18.59377 -4.42077,-9.39129 -6.11943,-19.08945 -5.5083,-31.44869 0.6141,-12.41926 3.10243,-20.81712 8.62077,-29.09411 3.56061,-5.34059 3.78707,-6.16191 4.3086,-15.62669 0.30276,-5.4944 1.11569,-11.05782 1.80652,-12.36314 1.80436,-3.40936 28.24566,-30.08827 43.09003,-43.47726 l 12.64373,-11.40409 0.64886,-16.74598 c 0.78593,-20.28372 3.45876,-52.8398 4.58028,-55.78962 1.36534,-3.59112 38.6591,-31.0484 55.29627,-40.71155 4.503,-2.61536 15.5374,-8.36119 24.521,-12.76854 14.9296,-7.32446 21.9197,-9.88009 30.4942,-9.70302"
         id="path3926"
         inkscape:connector-curvature="0"
         sodipodi:nodetypes="cccccsccccccccscccscssssccsccsccsssssscssssc" />
    </g>
    <g
       id="g4022"
       transform="translate(-660,43.571426)"
       style="stroke:#0000ff;stroke-opacity:1">
      <path
         id="path3896"
         d="m 1044.6428,266.78007 c -1.1,-0.2656 -4.025,-0.96997 -6.5,-1.56526 -16.0424,-3.85858 -30.558,-10.38505 -40.03342,-17.99973 l -3.83555,-3.08233 -3.11779,2.22006 c -1.71479,1.22104 -5.45676,3.10062 -8.3155,4.17684 -8.08367,3.04325 -37.52662,5.51721 -42.6977,3.58769 -0.825,-0.30783 -3.75,-1.13787 -6.5,-1.84453 -6.72607,-1.72837 -15.18422,-6.19848 -19.72473,-10.42447 -4.94775,-4.60503 -7.67608,-10.20725 -8.38813,-17.22383 -0.53945,-5.3156 -0.34527,-6.09011 2.50484,-9.99094 1.69929,-2.32575 4.25067,-4.52004 5.66973,-4.8762 3.9061,-0.98037 11.77146,0.39272 13.18829,2.30233 2.07342,2.79458 1.4479,3.56222 -2.3258,2.85427 -5.98773,-1.12331 -9.73022,4.022 -6.90263,9.48995 2.04598,3.95649 5.8934,4.81933 13.19769,2.48491 2.70455,-0.86437 5.88303,-2.16708 9.61947,-3.91339 20.32798,-9.50074 22.05831,-10.00888 31.80672,-9.34071 7.56141,0.51827 10.33086,1.52513 18.54284,6.74147 1.7182,1.09142 2.68489,1.14077 4.5,0.22975 2.6326,-1.32133 9.33637,-3.01278 12.31167,-3.10642 3.6072,-0.11352 12.9111,2.06556 17.5,4.09871 2.475,1.09655 10.35,6.05074 17.5,11.00931 15.3226,10.6263 19.0845,12.75466 22.5441,12.75466 4.4363,0 6.3374,-2.15295 5.5601,-6.29659 -0.9601,-5.11748 -4.9474,-8.06405 -9.8513,-7.27989 -2.7881,0.44584 -3.7529,0.2513 -3.7529,-0.75672 0,-4.61458 9.6751,-6.26682 15.5252,-2.65128 6.7385,4.16467 12.2737,14.95429 10.9299,21.30566 -1.6059,7.59059 -6.0157,12.65683 -13.4551,15.45789 -3.5626,1.34141 -21.8611,2.51738 -25.5,1.63879 z"
         style="fill:none;stroke:#0000ff;stroke-opacity:1"
         inkscape:connector-curvature="0"
         sodipodi:nodetypes="ssscsssssssssssssssssssscssscss" />
      <path
         id="path2996"
         d="m 1067.6428,262.55381 c 10.6756,-4.13836 14.6061,-11.07213 11.7293,-20.6916 -1.341,-4.48418 -4.2684,-8.14389 -8.7293,-10.91299 l -3,-1.86227 2.8643,3.06162 c 1.9537,2.08825 3.0119,4.43698 3.3285,7.38763 0.5994,5.58599 -1.0742,7.79923 -6.4422,8.51923 -5.3642,0.71949 -10.5835,-1.66479 -23.2506,-10.62138 -16.1876,-11.4459 -20.3691,-13.92101 -25.5192,-15.1051 -8.0315,-1.8466 -12.5814,-1.76114 -19.2779,0.3621 -6.03608,1.91385 -6.42992,1.92448 -9.5,0.25627 -11.43495,-6.21347 -10.89513,-6.05198 -20.20286,-6.04391 -9.30741,0.008 -10.96989,0.54786 -27.5,8.92899 -4.85201,2.46007 -15.04917,5.52981 -18.36912,5.52981 -8.43269,0 -13.41004,-10.9269 -7.85761,-17.25 2.10735,-2.39985 0.0769,-2.20655 -3.10397,0.29549 -6.7906,5.34149 -4.55548,18.82383 4.36501,26.32993 4.11782,3.46491 15.21043,8.52672 21.31167,9.72499 8.69905,1.70848 26.69948,1.18772 35.61102,-1.03024 7.92837,-1.97326 15.35046,-5.1406 16.53417,-7.05588 0.75036,-1.21411 6.50883,-1.37381 6.50883,-0.18051 0,0.87558 7.80676,6.33727 14.34406,10.03526 5.4285,3.07077 20.1417,8.55721 26.6559,9.93977 3.025,0.64201 6.4,1.35599 7.5,1.58662 4.7358,0.99289 18.2394,0.25398 22,-1.20383 z"
         style="fill:none;stroke:#0000ff;stroke-opacity:1"
         inkscape:connector-curvature="0" />
    </g>
    <path
       inkscape:connector-curvature="0"
       style="fill:none;stroke:#ff0000;stroke-width:1;stroke-opacity:1"
       d="m 374.98048,255.25004 c -1.27216,1.87416 -3.89814,2.68637 -5.94591,1.12016 m -0.34406,-7.44194 c 0.25738,-0.17258 0.54296,-0.31728 0.85599,-0.42876 1.22764,-0.43721 2.38115,-0.45109 3.35821,-0.088"
       id="path4000-2"
       inkscape:transform-center-x="-13.084641"
       inkscape:transform-center-y="-35.748848"
       sodipodi:nodetypes="cccsc" />
    <path
       inkscape:connector-curvature="0"
       style="fill:none;stroke:#ff0000;stroke-width:1;stroke-opacity:1"
       d="m 384.64672,269.32673 c -0.37657,-0.53118 -1.22201,-0.40832 -1.87878,0.27312 -1.4231,1.47658 -1.0937,2.77488 0.63646,2.50812 1.56103,-0.24076 2.13395,-1.52339 1.24233,-2.78121 z"
       id="path3998-3"
       inkscape:transform-center-x="0.29501553"
       inkscape:transform-center-y="-0.08422638" />
    <path
       inkscape:connector-curvature="0"
       style="fill:none;stroke:#ff0000;stroke-width:1;stroke-opacity:1"
       d="m 385.10878,275.04538 c -0.87101,-0.0298 -2.70124,-0.68601 -4.06719,-1.45828 -1.92726,-1.08958 -2.31973,-1.96364 -1.75212,-3.9022 0.91763,-3.13395 3.70377,-4.03005 6.90251,-2.22097 2.06748,1.16937 2.30505,1.89319 1.48141,4.51408 -0.65479,2.08362 -1.50753,3.10353 -2.56461,3.06737 z"
       id="path3996-1" />
    <path
       inkscape:connector-curvature="0"
       style="fill:none;stroke:#ff0000;stroke-width:1;stroke-opacity:1"
       d="m 393.86336,290.48043 c -0.49757,-0.84451 -1.31691,-1.38866 -1.82091,-1.20917 -0.5039,0.17943 -0.79483,1.11903 -0.64657,2.08794 0.16862,1.10189 0.85061,1.55474 1.82081,1.20921 0.97031,-0.34556 1.21249,-1.12754 0.64667,-2.08798 z"
       id="path3994-2"
       inkscape:transform-center-x="-33.933083"
       inkscape:transform-center-y="-0.93991743" />
    <path
       inkscape:connector-curvature="0"
       style="fill:none;stroke:#ff0000;stroke-width:1;stroke-opacity:1"
       d="m 396.51358,289.00016 c 0.31091,0.73156 0.43848,1.64733 0.34675,2.71894 -0.16744,1.95607 -0.9768,3.08413 -2.63715,3.67543 -1.66025,0.59128 -3.00045,0.22876 -4.36665,-1.18111 -2.60317,-2.68647 -1.95865,-5.58916 1.51494,-6.82624 0.47192,-0.16807 0.92279,-0.27932 1.34884,-0.33674"
       id="path3992-6"
       inkscape:transform-center-x="-33.748971"
       inkscape:transform-center-y="-0.56411125"
       sodipodi:nodetypes="csscsc" />
    <g
       id="g4026"
       transform="translate(-905.71429,-26.428571)"
       style="stroke:#00ff00;stroke-opacity:1">
      <path
         id="path3910"
         d="m 1265.7672,282.3098 c -12.8778,-3.21825 -25.3545,-13.82383 -29.8098,-25.33937 l -1.5057,-3.89179 -1.1186,4.44227 c -3.3767,13.40993 -18.5185,22.07475 -32.9899,18.8782 -24.6546,-5.4459 -40.5522,-30.10782 -32.6876,-50.708 1.7815,-4.66643 8.8981,-11.76698 13.8798,-13.84845 16.64,-6.95266 39.9948,3.47195 48.6152,21.69988 l 2.8076,5.93671 0.7144,-3.30852 c 2.6812,-12.41832 13.1337,-20.2302 26.9702,-20.15674 16.8431,0.0894 33.4433,12.61843 39.0387,29.46453 3.5151,10.58296 0.6316,23.73429 -6.7059,30.58484 -5.7386,5.35771 -18.7821,8.35222 -27.2084,6.24644 z"
         style="fill:none;stroke:#00ff00;stroke-opacity:1"
         inkscape:connector-curvature="0" />
      <path
         id="path3904"
         d="m 1282.4669,273.45189 c 3.7293,-1.90127 6.9032,-5.23309 9.5813,-10.05787 1.6174,-2.914 2.0578,-16.7676 0.5669,-17.83545 -0.5348,-0.383 -1.821,-2.27136 -2.8584,-4.19636 -4.9252,-9.13919 -16.0814,-16.85807 -25.7012,-17.78241 -9.1113,-0.87549 -17.8568,3.96743 -21.9456,12.15266 -2.4501,4.90486 -1.8348,13.56106 1.4214,19.99679 3.7234,7.35929 12.6304,15.63307 19.162,17.7998 6.9535,2.30672 15.1606,2.2747 19.7736,-0.0772 z"
         style="fill:none;stroke:#00ff00;stroke-opacity:1"
         inkscape:connector-curvature="0" />
      <path
         id="path3898"
         d="m 1212.2206,268.22078 c 4.932,-1.47768 10.4522,-6.06584 12.5065,-10.39489 0.9104,-1.91842 1.6499,-6.07554 1.6817,-9.45346 0.1787,-18.96906 -24.0806,-36.54624 -40.7988,-29.56093 -12.8107,5.35263 -16.1696,24.7819 -6.2172,35.96198 0.9625,1.08122 1.75,2.22738 1.75,2.54701 0,0.31964 2.2597,2.37229 5.0215,4.56144 8.3424,6.61275 17.6138,8.86826 26.0563,6.33885 z"
         style="fill:none;stroke:#00ff00;stroke-opacity:1"
         inkscape:connector-curvature="0" />
    </g>
  </g>
</svg>
