solid rover rear wheel part 1
facet normal -0.289835117322187 0.957076592946894 -0.0
   outer loop
      vertex -3273.59036149179 -1523.16296401907 4.47559099684106
      vertex -3271.89636463565 -1522.64996455679 -0.0254000012064353
      vertex -3273.59036149179 -1523.16296401907 -0.0254000012064353
   endloop
endfacet
facet normal -0.289835117322187 0.957076592946894 -0.0
   outer loop
      vertex -3271.89636463565 -1522.64996455679 -0.0254000012064353
      vertex -3273.59036149179 -1523.16296401907 4.47559099684106
      vertex -3271.89636463565 -1522.64996455679 4.47559099684106
   endloop
endfacet
facet normal 0.707106781186548 0.707106781186548 -0.0
   outer loop
      vertex -3274.47335533127 -1537.74093779275 -0.0254000012064353
      vertex -3273.92436045758 -1538.28993266644 4.47559099684106
      vertex -3273.92436045758 -1538.28993266644 -0.0254000012064353
   endloop
endfacet
facet normal 0.707106781186548 0.707106781186548 -0.0
   outer loop
      vertex -3273.92436045758 -1538.28993266644 4.47559099684106
      vertex -3274.47335533127 -1537.74093779275 -0.0254000012064353
      vertex -3274.47335533127 -1537.74093779275 4.47559099684106
   endloop
endfacet
facet normal 0.965589768138093 0.260069989939293 -0.0
   outer loop
      vertex -3274.67535840626 -1536.99093929275 -0.0254000012064353
      vertex -3274.47335533127 -1537.74093779275 4.47559099684106
      vertex -3274.47335533127 -1537.74093779275 -0.0254000012064353
   endloop
endfacet
facet normal 0.965589768138093 0.260069989939293 -0.0
   outer loop
      vertex -3274.47335533127 -1537.74093779275 4.47559099684106
      vertex -3274.67535840626 -1536.99093929275 -0.0254000012064353
      vertex -3274.67535840626 -1536.99093929275 4.47559099684106
   endloop
endfacet
facet normal 0.634219578605132 0.773152977174588 0.0
   outer loop
      vertex -3265.11837831372 -1523.99796524823 4.47559099684106
      vertex -3263.74937775583 -1525.12096028617 -0.0254000012064353
      vertex -3265.11837831372 -1523.99796524823 -0.0254000012064353
   endloop
endfacet
facet normal 0.634219578605132 0.773152977174588 0.0
   outer loop
      vertex -3263.74937775583 -1525.12096028617 -0.0254000012064353
      vertex -3265.11837831372 -1523.99796524823 4.47559099684106
      vertex -3263.74937775583 -1525.12096028617 4.47559099684106
   endloop
endfacet
facet normal 0.772923864180464 0.634498778706736 0.0
   outer loop
      vertex -3263.74937775583 -1525.12096028617 -0.0254000012064353
      vertex -3262.6263789032 -1526.48895758069 4.47559099684106
      vertex -3262.6263789032 -1526.48895758069 -0.0254000012064353
   endloop
endfacet
facet normal 0.772923864180464 0.634498778706736 0.0
   outer loop
      vertex -3262.6263789032 -1526.48895758069 4.47559099684106
      vertex -3263.74937775583 -1525.12096028617 -0.0254000012064353
      vertex -3263.74937775583 -1525.12096028617 4.47559099684106
   endloop
endfacet
facet normal 0.882134102404061 0.470998328421431 0.0
   outer loop
      vertex -3262.6263789032 -1526.48895758069 -0.0254000012064353
      vertex -3261.79238093741 -1528.05095473135 4.47559099684106
      vertex -3261.79238093741 -1528.05095473135 -0.0254000012064353
   endloop
endfacet
facet normal 0.882134102404061 0.470998328421431 0.0
   outer loop
      vertex -3261.79238093741 -1528.05095473135 4.47559099684106
      vertex -3262.6263789032 -1526.48895758069 -0.0254000012064353
      vertex -3262.6263789032 -1526.48895758069 4.47559099684106
   endloop
endfacet
facet normal -0.0983284667241651 0.995154014528241 -0.0
   outer loop
      vertex -3271.89636463565 -1522.64996455679 4.47559099684106
      vertex -3270.13536657074 -1522.47596511841 -0.0254000012064353
      vertex -3271.89636463565 -1522.64996455679 -0.0254000012064353
   endloop
endfacet
facet normal -0.0983284667241651 0.995154014528241 -0.0
   outer loop
      vertex -3270.13536657074 -1522.47596511841 -0.0254000012064353
      vertex -3271.89636463565 -1522.64996455679 4.47559099684106
      vertex -3270.13536657074 -1522.47596511841 4.47559099684106
   endloop
endfacet
facet normal 0.965589768138093 -0.260069989939293 -0.0
   outer loop
      vertex -3274.47335533127 -1536.24094079275 -0.0254000012064353
      vertex -3274.67535840626 -1536.99093929275 4.47559099684106
      vertex -3274.67535840626 -1536.99093929275 -0.0254000012064353
   endloop
endfacet
facet normal 0.965589768138093 -0.260069989939293 -0.0
   outer loop
      vertex -3274.67535840626 -1536.99093929275 4.47559099684106
      vertex -3274.47335533127 -1536.24094079275 -0.0254000012064353
      vertex -3274.47335533127 -1536.24094079275 4.47559099684106
   endloop
endfacet
facet normal 0.365590326470781 0.930775866248684 0.0
   outer loop
      vertex -3271.37700990044 -1535.19251912251 4.47559099684106
      vertex -3263.99385358524 -1538.09247670148 2.37259527722751
      vertex -3271.37700990044 -1535.19251912251 2.37259527722751
   endloop
endfacet
facet normal 0.365590326470781 0.930775866248684 0.0
   outer loop
      vertex -3263.99385358524 -1538.09247670148 2.37259527722751
      vertex -3271.37700990044 -1535.19251912251 4.47559099684106
      vertex -3263.99385358524 -1538.09247670148 4.47559099684106
   endloop
endfacet
facet normal 0.0982732311786842 0.995159470654679 0.0
   outer loop
      vertex -3270.13536657074 -1522.47596511841 4.47559099684106
      vertex -3268.37336905714 -1522.64996455679 -0.0254000012064353
      vertex -3270.13536657074 -1522.47596511841 -0.0254000012064353
   endloop
endfacet
facet normal 0.0982732311786842 0.995159470654679 0.0
   outer loop
      vertex -3268.37336905714 -1522.64996455679 -0.0254000012064353
      vertex -3270.13536657074 -1522.47596511841 4.47559099684106
      vertex -3268.37336905714 -1522.64996455679 4.47559099684106
   endloop
endfacet
facet normal 0.883010726122745 -0.469352807120809 -0.0
   outer loop
      vertex -3271.71204646181 -1535.01471643856 2.37259527722751
      vertex -3271.73236349881 -1535.05293962872 4.47559099684106
      vertex -3271.73236349881 -1535.05293962872 2.37259527722751
   endloop
endfacet
facet normal 0.883010726122745 -0.469352807120809 -0.0
   outer loop
      vertex -3271.73236349881 -1535.05293962872 4.47559099684106
      vertex -3271.71204646181 -1535.01471643856 2.37259527722751
      vertex -3271.71204646181 -1535.01471643856 4.47559099684106
   endloop
endfacet
facet normal 0.567286533926702 0.823520484520834 -0.0
   outer loop
      vertex -3272.61829464931 -1534.39044247959 4.47559099684106
      vertex -3271.71204646181 -1535.01471643856 2.37259527722751
      vertex -3272.61829464931 -1534.39044247959 2.37259527722751
   endloop
endfacet
facet normal 0.567286533926702 0.823520484520834 -0.0
   outer loop
      vertex -3271.71204646181 -1535.01471643856 2.37259527722751
      vertex -3272.61829464931 -1534.39044247959 4.47559099684106
      vertex -3271.71204646181 -1535.01471643856 4.47559099684106
   endloop
endfacet
facet normal 0.289835117322187 0.957076592946894 0.0
   outer loop
      vertex -3268.37336905714 -1522.64996455679 4.47559099684106
      vertex -3266.679372201 -1523.16296401907 -0.0254000012064353
      vertex -3268.37336905714 -1522.64996455679 -0.0254000012064353
   endloop
endfacet
facet normal 0.289835117322187 0.957076592946894 0.0
   outer loop
      vertex -3266.679372201 -1523.16296401907 -0.0254000012064353
      vertex -3268.37336905714 -1522.64996455679 4.47559099684106
      vertex -3266.679372201 -1523.16296401907 4.47559099684106
   endloop
endfacet
facet normal 0.471674654882436 0.881772657742082 0.0
   outer loop
      vertex -3266.679372201 -1523.16296401907 4.47559099684106
      vertex -3265.11837831372 -1523.99796524823 -0.0254000012064353
      vertex -3266.679372201 -1523.16296401907 -0.0254000012064353
   endloop
endfacet
facet normal 0.471674654882436 0.881772657742082 0.0
   outer loop
      vertex -3265.11837831372 -1523.99796524823 -0.0254000012064353
      vertex -3266.679372201 -1523.16296401907 4.47559099684106
      vertex -3265.11837831372 -1523.99796524823 4.47559099684106
   endloop
endfacet
facet normal 0.707111694465205 -0.707101867873751 -0.0
   outer loop
      vertex -3273.92436045758 -1535.69193828968 -0.0254000012064353
      vertex -3274.47335533127 -1536.24094079275 4.47559099684106
      vertex -3274.47335533127 -1536.24094079275 -0.0254000012064353
   endloop
endfacet
facet normal 0.707111694465205 -0.707101867873751 -0.0
   outer loop
      vertex -3274.47335533127 -1536.24094079275 4.47559099684106
      vertex -3273.92436045758 -1535.69193828968 -0.0254000012064353
      vertex -3273.92436045758 -1535.69193828968 4.47559099684106
   endloop
endfacet
facet normal -0.566847292261657 -0.823818222373147 0.00277195627237342
   outer loop
      vertex -3261.24469068758 -1532.92670791927 4.47559099684106
      vertex -3267.20237377951 -1528.8459513103 2.37259527722751
      vertex -3261.24469068758 -1532.92670791927 2.37259527722751
   endloop
endfacet
facet normal -0.566847292261657 -0.823818222373147 0.00277195627237342
   outer loop
      vertex -3267.20237377951 -1528.8459513103 2.37259527722751
      vertex -3261.24469068758 -1532.92670791927 4.47559099684106
      vertex -3268.0436959494 -1528.24316931274 2.37259527722751
   endloop
endfacet
facet normal -0.566847292261657 -0.823818222373147 0.00277195627237342
   outer loop
      vertex -3268.0436959494 -1528.24316931274 2.37259527722751
      vertex -3261.24469068758 -1532.92670791927 4.47559099684106
      vertex -3268.0436959494 -1528.24316931274 4.47559099684106
   endloop
endfacet
facet normal 0.567287131143472 0.823520073124517 -0.0
   outer loop
      vertex -3279.01497222458 -1529.98405633389 4.47559099684106
      vertex -3272.69732738919 -1534.33600685848 2.37259527722751
      vertex -3279.01497222458 -1529.98405633389 2.37259527722751
   endloop
endfacet
facet normal 0.567287131143472 0.823520073124517 -0.0
   outer loop
      vertex -3272.69732738919 -1534.33600685848 2.37259527722751
      vertex -3279.01497222458 -1529.98405633389 4.47559099684106
      vertex -3272.69732738919 -1534.33600685848 4.47559099684106
   endloop
endfacet
facet normal -0.36559073644932 -0.930775705217129 0.0
   outer loop
      vertex -3268.60478338924 -1527.97659117158 4.47559099684106
      vertex -3276.31152456752 -1524.94953194861 2.37259527722751
      vertex -3268.60478338924 -1527.97659117158 2.37259527722751
   endloop
endfacet
facet normal -0.36559073644932 -0.930775705217129 0.0
   outer loop
      vertex -3276.31152456752 -1524.94953194861 2.37259527722751
      vertex -3268.60478338924 -1527.97659117158 4.47559099684106
      vertex -3276.31152456752 -1524.94953194861 4.47559099684106
   endloop
endfacet
facet normal -0.882898820954895 0.46956327790454 0.0
   outer loop
      vertex -3268.02337128302 -1528.20495375196 4.47559099684106
      vertex -3268.0436959494 -1528.24316931274 2.37259527722751
      vertex -3268.0436959494 -1528.24316931274 4.47559099684106
   endloop
endfacet
facet normal -0.882898820954895 0.46956327790454 0.0
   outer loop
      vertex -3268.0436959494 -1528.24316931274 2.37259527722751
      vertex -3268.02337128302 -1528.20495375196 4.47559099684106
      vertex -3268.02337128302 -1528.20495375196 2.37259527722751
   endloop
endfacet
facet normal 0.565963847354758 0.824430023653663 -0.000244102069611121
   outer loop
      vertex -3272.69732738919 -1534.33600685848 2.37259527722751
      vertex -3272.61829464931 -1534.39044247959 2.37259527722751
      vertex -3272.69535900934 -1534.3389441695 -0.0254000012064353
   endloop
endfacet
facet normal 0.565963847354758 0.824430023653663 -0.000244102069611121
   outer loop
      vertex -3272.61829464931 -1534.39044247959 2.37259527722751
      vertex -3272.69732738919 -1534.33600685848 2.37259527722751
      vertex -3272.69732738919 -1534.33600685848 4.47559099684106
   endloop
endfacet
facet normal 0.565963847354758 0.824430023653663 -0.000244102069611121
   outer loop
      vertex -3272.61829464931 -1534.39044247959 2.37259527722751
      vertex -3272.69732738919 -1534.33600685848 4.47559099684106
      vertex -3272.61829464931 -1534.39044247959 4.47559099684106
   endloop
endfacet
facet normal 0.258860506086595 -0.965914715898144 0.0
   outer loop
      vertex -3273.17436195758 -1535.49094229275 4.47559099684106
      vertex -3273.92436045758 -1535.69193828968 -0.0254000012064353
      vertex -3273.17436195758 -1535.49094229275 -0.0254000012064353
   endloop
endfacet
facet normal 0.258860506086595 -0.965914715898144 0.0
   outer loop
      vertex -3273.92436045758 -1535.69193828968 -0.0254000012064353
      vertex -3273.17436195758 -1535.49094229275 4.47559099684106
      vertex -3273.92436045758 -1535.69193828968 4.47559099684106
   endloop
endfacet
facet normal -0.19534816522006 -0.980733956965474 0.0
   outer loop
      vertex -3268.46237339574 -1528.00495720371 4.47559099684106
      vertex -3268.60478338924 -1527.97659117158 2.37259527722751
      vertex -3268.46237339574 -1528.00495720371 -0.0254000012064353
   endloop
endfacet
facet normal -0.19534816522006 -0.980733956965474 0.0
   outer loop
      vertex -3268.60478338924 -1527.97659117158 2.37259527722751
      vertex -3268.46237339574 -1528.00495720371 4.47559099684106
      vertex -3268.60478338924 -1527.97659117158 4.47559099684106
   endloop
endfacet
facet normal -0.365580352981457 -0.93077978357609 0.0
   outer loop
      vertex -3268.02337128302 -1528.20495375196 4.47559099684106
      vertex -3268.36200128203 -1528.0719507831 2.37259527722751
      vertex -3268.02337128302 -1528.20495375196 2.37259527722751
   endloop
endfacet
facet normal -0.365580352981457 -0.93077978357609 0.0
   outer loop
      vertex -3268.36200128203 -1528.0719507831 2.37259527722751
      vertex -3268.02337128302 -1528.20495375196 4.47559099684106
      vertex -3268.36200128203 -1528.0719507831 4.47559099684106
   endloop
endfacet
facet normal -0.965589768138093 0.260069989939293 -0.0
   outer loop
      vertex -3265.47337333127 -1526.09095956687 4.47559099684106
      vertex -3265.67537640627 -1526.84095806687 -0.025400001206443
      vertex -3265.67537640627 -1526.84095806687 4.47559099684106
   endloop
endfacet
facet normal -0.965589768138093 0.260069989939293 -0.0
   outer loop
      vertex -3265.67537640627 -1526.84095806687 -0.025400001206443
      vertex -3265.47337333127 -1526.09095956687 4.47559099684106
      vertex -3265.47337333127 -1526.09095956687 -0.025400001206443
   endloop
endfacet
facet normal -0.258860506086595 -0.965914715898144 -0.0
   outer loop
      vertex -3272.42436345758 -1535.69193828968 4.47559099684106
      vertex -3273.17436195758 -1535.49094229275 -0.0254000012064353
      vertex -3272.42436345758 -1535.69193828968 -0.0254000012064353
   endloop
endfacet
facet normal -0.258860506086595 -0.965914715898144 -0.0
   outer loop
      vertex -3273.17436195758 -1535.49094229275 -0.0254000012064353
      vertex -3272.42436345758 -1535.69193828968 4.47559099684106
      vertex -3273.17436195758 -1535.49094229275 4.47559099684106
   endloop
endfacet
facet normal 0.956919842624781 0.290352225393513 0.0
   outer loop
      vertex -3261.79238093741 -1528.05095473135 -0.0254000012064353
      vertex -3261.27838202644 -1529.74495158749 4.47559099684106
      vertex -3261.27838202644 -1529.74495158749 -0.0254000012064353
   endloop
endfacet
facet normal 0.956919842624781 0.290352225393513 0.0
   outer loop
      vertex -3261.27838202644 -1529.74495158749 4.47559099684106
      vertex -3261.79238093741 -1528.05095473135 -0.0254000012064353
      vertex -3261.79238093741 -1528.05095473135 4.47559099684106
   endloop
endfacet
facet normal -0.8818995414313 0.471437375293117 0.0
   outer loop
      vertex -3277.6433547896 -1526.48895758069 2.37259527722751
      vertex -3278.47835220407 -1528.05095473135 -0.0254000012064353
      vertex -3278.47835220407 -1528.05095473135 2.37259527722751
   endloop
endfacet
facet normal -0.8818995414313 0.471437375293117 0.0
   outer loop
      vertex -3278.47835220407 -1528.05095473135 -0.0254000012064353
      vertex -3277.6433547896 -1526.48895758069 2.37259527722751
      vertex -3277.6433547896 -1526.48895758069 -0.0254000012064353
   endloop
endfacet
facet normal 0.365582805814093 0.930778820178615 0.0
   outer loop
      vertex -3271.73236349881 -1535.05293962872 4.47559099684106
      vertex -3271.47654278243 -1535.15341855373 2.37259527722751
      vertex -3271.73236349881 -1535.05293962872 2.37259527722751
   endloop
endfacet
facet normal 0.365582805814093 0.930778820178615 0.0
   outer loop
      vertex -3271.47654278243 -1535.15341855373 2.37259527722751
      vertex -3271.73236349881 -1535.05293962872 4.47559099684106
      vertex -3271.47654278243 -1535.15341855373 4.47559099684106
   endloop
endfacet
facet normal -0.707106781186548 -0.707106781186548 -0.0
   outer loop
      vertex -3272.42436345758 -1535.69193828968 4.47559099684106
      vertex -3271.87536095451 -1536.24094079275 -0.0254000012064353
      vertex -3271.87536095451 -1536.24094079275 4.47559099684106
   endloop
endfacet
facet normal -0.707106781186548 -0.707106781186548 -0.0
   outer loop
      vertex -3271.87536095451 -1536.24094079275 -0.0254000012064353
      vertex -3272.42436345758 -1535.69193828968 4.47559099684106
      vertex -3272.42436345758 -1535.69193828968 -0.0254000012064353
   endloop
endfacet
facet normal -0.707101867873751 0.707111694465205 -0.0
   outer loop
      vertex -3266.22437890933 -1527.38995294056 4.47559099684106
      vertex -3265.67537640627 -1526.84095806687 -0.025400001206443
      vertex -3266.22437890933 -1527.38995294056 -0.025400001206443
   endloop
endfacet
facet normal -0.707101867873751 0.707111694465205 -0.0
   outer loop
      vertex -3265.67537640627 -1526.84095806687 -0.025400001206443
      vertex -3266.22437890933 -1527.38995294056 4.47559099684106
      vertex -3265.67537640627 -1526.84095806687 4.47559099684106
   endloop
endfacet
facet normal -0.772923864180464 0.634498778706735 0.0
   outer loop
      vertex -3276.52035593697 -1525.12096028617 2.37259527722751
      vertex -3277.6433547896 -1526.48895758069 -0.0254000012064353
      vertex -3277.6433547896 -1526.48895758069 2.37259527722751
   endloop
endfacet
facet normal -0.772923864180464 0.634498778706735 0.0
   outer loop
      vertex -3277.6433547896 -1526.48895758069 -0.0254000012064353
      vertex -3276.52035593697 -1525.12096028617 2.37259527722751
      vertex -3276.52035593697 -1525.12096028617 -0.0254000012064353
   endloop
endfacet
facet normal -0.634497143349197 0.772925206654375 -0.0
   outer loop
      vertex -3276.31152456752 -1524.94953194861 2.37259527722751
      vertex -3275.15235482776 -1523.99796524823 4.47559099684106
      vertex -3275.15235482776 -1523.99796524823 -0.0254000012064353
   endloop
endfacet
facet normal -0.634497143349197 0.772925206654375 -0.0
   outer loop
      vertex -3275.15235482776 -1523.99796524823 4.47559099684106
      vertex -3276.31152456752 -1524.94953194861 2.37259527722751
      vertex -3276.31152456752 -1524.94953194861 4.47559099684106
   endloop
endfacet
facet normal -0.63449643408726 0.772925788889349 5.73892033941812e-007
   outer loop
      vertex -3276.31152456752 -1524.94953194861 2.37259527722751
      vertex -3275.15235482776 -1523.99796524823 -0.0254000012064353
      vertex -3276.52035593697 -1525.12096028617 -0.0254000012064353
   endloop
endfacet
facet normal -0.634492497126449 0.772929020732333 -0.0
   outer loop
      vertex -3276.31152456752 -1524.94953194861 2.37259527722751
      vertex -3276.52035593697 -1525.12096028617 -0.0254000012064353
      vertex -3276.52035593697 -1525.12096028617 2.37259527722751
   endloop
endfacet
facet normal -0.965914715898144 -0.258860506086595 -0.0
   outer loop
      vertex -3271.87536095451 -1536.24094079275 4.47559099684106
      vertex -3271.67436495758 -1536.99093929275 -0.0254000012064353
      vertex -3271.67436495758 -1536.99093929275 4.47559099684106
   endloop
endfacet
facet normal -0.965914715898144 -0.258860506086595 -0.0
   outer loop
      vertex -3271.67436495758 -1536.99093929275 -0.0254000012064353
      vertex -3271.87536095451 -1536.24094079275 4.47559099684106
      vertex -3271.87536095451 -1536.24094079275 -0.0254000012064353
   endloop
endfacet
facet normal -0.471439945826096 0.881898167295685 -0.0
   outer loop
      vertex -3275.15235482776 -1523.99796524823 4.47559099684106
      vertex -3273.59036149179 -1523.16296401907 -0.0254000012064353
      vertex -3275.15235482776 -1523.99796524823 -0.0254000012064353
   endloop
endfacet
facet normal -0.471439945826096 0.881898167295685 -0.0
   outer loop
      vertex -3273.59036149179 -1523.16296401907 -0.0254000012064353
      vertex -3275.15235482776 -1523.99796524823 4.47559099684106
      vertex -3273.59036149179 -1523.16296401907 4.47559099684106
   endloop
endfacet
facet normal -0.260069989939293 0.965589768138093 -0.0
   outer loop
      vertex -3266.97437740933 -1527.59195601556 4.47559099684106
      vertex -3266.22437890933 -1527.38995294056 -0.025400001206443
      vertex -3266.97437740933 -1527.59195601556 -0.025400001206443
   endloop
endfacet
facet normal -0.260069989939293 0.965589768138093 -0.0
   outer loop
      vertex -3266.22437890933 -1527.38995294056 -0.025400001206443
      vertex -3266.97437740933 -1527.59195601556 4.47559099684106
      vertex -3266.22437890933 -1527.38995294056 4.47559099684106
   endloop
endfacet
facet normal -0.555152394747924 -0.831748651099384 0.0
   outer loop
      vertex -3268.36200128203 -1528.0719507831 2.37259527722751
      vertex -3268.46237339574 -1528.00495720371 4.47559099684106
      vertex -3268.46237339574 -1528.00495720371 -0.0254000012064353
   endloop
endfacet
facet normal -0.555152394747924 -0.831748651099384 0.0
   outer loop
      vertex -3268.46237339574 -1528.00495720371 4.47559099684106
      vertex -3268.36200128203 -1528.0719507831 2.37259527722751
      vertex -3268.36200128203 -1528.0719507831 4.47559099684106
   endloop
endfacet
facet normal 0.260069989939293 0.965589768138093 -0.0
   outer loop
      vertex -3267.72437590933 -1527.38995294056 4.47559099684106
      vertex -3266.97437740933 -1527.59195601556 -0.025400001206443
      vertex -3267.72437590933 -1527.38995294056 -0.025400001206443
   endloop
endfacet
facet normal 0.260069989939293 0.965589768138093 -0.0
   outer loop
      vertex -3266.97437740933 -1527.59195601556 -0.025400001206443
      vertex -3267.72437590933 -1527.38995294056 4.47559099684106
      vertex -3266.97437740933 -1527.59195601556 4.47559099684106
   endloop
endfacet
facet normal 0.195231584371665 -0.980757170997862 0.0
   outer loop
      vertex -3269.94837048477 -1527.7089525467 2.37259527722751
      vertex -3271.43536702249 -1528.00495720371 -0.0254000012064353
      vertex -3269.94837048477 -1527.7089525467 -0.0254000012064353
   endloop
endfacet
facet normal 0.195231584371665 -0.980757170997862 0.0
   outer loop
      vertex -3271.43536702249 -1528.00495720371 -0.0254000012064353
      vertex -3269.94837048477 -1527.7089525467 2.37259527722751
      vertex -3271.43536702249 -1528.00495720371 2.37259527722751
   endloop
endfacet
facet normal -0.195357883077898 -0.980732021257062 -6.00013040726894e-007
   outer loop
      vertex -3268.60478338924 -1527.97659117158 2.37259527722751
      vertex -3269.94837048477 -1527.7089525467 -0.0254000012064353
      vertex -3268.46237339574 -1528.00495720371 -0.0254000012064353
   endloop
endfacet
facet normal -0.195358913093442 -0.98073181608172 0.0
   outer loop
      vertex -3269.94837048477 -1527.7089525467 2.37259527722751
      vertex -3269.94837048477 -1527.7089525467 -0.0254000012064353
      vertex -3268.60478338924 -1527.97659117158 2.37259527722751
   endloop
endfacet
facet normal 0.707106781186548 0.707106781186548 -0.0
   outer loop
      vertex -3268.27337078302 -1526.84095806687 -0.025400001206443
      vertex -3267.72437590933 -1527.38995294056 4.47559099684106
      vertex -3267.72437590933 -1527.38995294056 -0.025400001206443
   endloop
endfacet
facet normal 0.707106781186548 0.707106781186548 -0.0
   outer loop
      vertex -3267.72437590933 -1527.38995294056 4.47559099684106
      vertex -3268.27337078302 -1526.84095806687 -0.025400001206443
      vertex -3268.27337078302 -1526.84095806687 4.47559099684106
   endloop
endfacet
facet normal 0.194660943615151 0.980870591378322 0.0
   outer loop
      vertex -3271.43536702249 -1535.18093772477 4.47559099684106
      vertex -3271.37700990044 -1535.19251912251 2.37259527722751
      vertex -3271.43536702249 -1535.18093772477 -0.0254000012064353
   endloop
endfacet
facet normal 0.194660943615151 0.980870591378322 0.0
   outer loop
      vertex -3271.37700990044 -1535.19251912251 2.37259527722751
      vertex -3271.43536702249 -1535.18093772477 4.47559099684106
      vertex -3271.37700990044 -1535.19251912251 4.47559099684106
   endloop
endfacet
facet normal 0.965912259047493 0.258869673430026 -0.0
   outer loop
      vertex -3268.47437440933 -1526.09095956687 -0.025400001206443
      vertex -3268.27337078302 -1526.84095806687 4.47559099684106
      vertex -3268.27337078302 -1526.84095806687 -0.025400001206443
   endloop
endfacet
facet normal 0.965912259047493 0.258869673430026 -0.0
   outer loop
      vertex -3268.27337078302 -1526.84095806687 4.47559099684106
      vertex -3268.47437440933 -1526.09095956687 -0.025400001206443
      vertex -3268.47437440933 -1526.09095956687 4.47559099684106
   endloop
endfacet
facet normal 0.995159289466001 -0.0982750659604116 -2.21762051405056e-018
   outer loop
      vertex -3261.10438640276 -1531.5059496524 -0.0254000012064353
      vertex -3261.24469068758 -1532.92670791927 4.47559099684106
      vertex -3261.24469068758 -1532.92670791927 2.37259527722751
   endloop
endfacet
facet normal 0.995159289466001 -0.0982750659604116 -2.21762051405056e-018
   outer loop
      vertex -3261.24469068758 -1532.92670791927 4.47559099684106
      vertex -3261.10438640276 -1531.5059496524 -0.0254000012064353
      vertex -3261.10438640276 -1531.5059496524 4.47559099684106
   endloop
endfacet
facet normal -0.471002576346987 -0.882131834293775 0.0
   outer loop
      vertex -3273.59036149179 -1539.84893528573 4.47559099684106
      vertex -3275.15235482776 -1539.01492969056 -0.0254000012064353
      vertex -3273.59036149179 -1539.84893528573 -0.0254000012064353
   endloop
endfacet
facet normal -0.471002576346987 -0.882131834293775 0.0
   outer loop
      vertex -3275.15235482776 -1539.01492969056 -0.0254000012064353
      vertex -3273.59036149179 -1539.84893528573 4.47559099684106
      vertex -3275.15235482776 -1539.01492969056 4.47559099684106
   endloop
endfacet
facet normal -0.0 -0.0 1.0
   outer loop
      vertex -3271.47654278243 -1535.15341855373 2.37259527722751
      vertex -3271.71204646181 -1535.01471643856 2.37259527722751
      vertex -3271.73236349881 -1535.05293962872 2.37259527722751
   endloop
endfacet
facet normal 0.555659679426724 0.83140983916441 0.0
   outer loop
      vertex -3271.47654278243 -1535.15341855373 2.37259527722751
      vertex -3271.43536702249 -1535.18093772477 4.47559099684106
      vertex -3271.43536702249 -1535.18093772477 -0.0254000012064353
   endloop
endfacet
facet normal 0.555659679426724 0.83140983916441 0.0
   outer loop
      vertex -3271.43536702249 -1535.18093772477 4.47559099684106
      vertex -3271.47654278243 -1535.15341855373 2.37259527722751
      vertex -3271.47654278243 -1535.15341855373 4.47559099684106
   endloop
endfacet
facet normal 0.995161312839762 -0.0982545745858293 0.0
   outer loop
      vertex -3261.24469068758 -1532.92670791927 2.37259527722751
      vertex -3261.27838202644 -1533.26794716599 2.37259527722751
      vertex -3261.27838202644 -1533.26794716599 -0.0254000012064353
   endloop
endfacet
facet normal 0.995159681354473 -0.0982710974845966 2.37416166073597e-006
   outer loop
      vertex -3261.10438640276 -1531.5059496524 -0.0254000012064353
      vertex -3261.24469068758 -1532.92670791927 2.37259527722751
      vertex -3261.27838202644 -1533.26794716599 -0.0254000012064353
   endloop
endfacet
facet normal 0.965912259047493 -0.258869673430026 -0.0
   outer loop
      vertex -3268.27337078302 -1525.34096106687 -0.025400001206443
      vertex -3268.47437440933 -1526.09095956687 4.47559099684106
      vertex -3268.47437440933 -1526.09095956687 -0.025400001206443
   endloop
endfacet
facet normal 0.965912259047493 -0.258869673430026 -0.0
   outer loop
      vertex -3268.47437440933 -1526.09095956687 4.47559099684106
      vertex -3268.27337078302 -1525.34096106687 -0.025400001206443
      vertex -3268.27337078302 -1525.34096106687 4.47559099684106
   endloop
endfacet
facet normal 0.956919842624781 -0.290352225393513 0.0
   outer loop
      vertex -3261.27838202644 -1533.26794716599 -0.0254000012064353
      vertex -3261.79238093741 -1534.96194402213 2.37259527722751
      vertex -3261.79238093741 -1534.96194402213 -0.0254000012064353
   endloop
endfacet
facet normal 0.956919842624781 -0.290352225393513 0.0
   outer loop
      vertex -3261.79238093741 -1534.96194402213 2.37259527722751
      vertex -3261.27838202644 -1533.26794716599 -0.0254000012064353
      vertex -3261.27838202644 -1533.26794716599 2.37259527722751
   endloop
endfacet
facet normal 0.707109237838679 -0.707104324525881 -0.0
   outer loop
      vertex -3267.72437590933 -1524.79196237849 -0.025400001206443
      vertex -3268.27337078302 -1525.34096106687 4.47559099684106
      vertex -3268.27337078302 -1525.34096106687 -0.025400001206443
   endloop
endfacet
facet normal 0.707109237838679 -0.707104324525881 -0.0
   outer loop
      vertex -3268.27337078302 -1525.34096106687 4.47559099684106
      vertex -3267.72437590933 -1524.79196237849 -0.025400001206443
      vertex -3267.72437590933 -1524.79196237849 4.47559099684106
   endloop
endfacet
facet normal 0.882008315988985 -0.471233838477539 0.0
   outer loop
      vertex -3261.79238093741 -1534.96194402213 -0.0254000012064353
      vertex -3262.6263789032 -1536.52293790942 2.37259527722751
      vertex -3262.6263789032 -1536.52293790942 -0.0254000012064353
   endloop
endfacet
facet normal 0.882008315988985 -0.471233838477539 0.0
   outer loop
      vertex -3262.6263789032 -1536.52293790942 2.37259527722751
      vertex -3261.79238093741 -1534.96194402213 -0.0254000012064353
      vertex -3261.79238093741 -1534.96194402213 2.37259527722751
   endloop
endfacet
facet normal -0.634495146469349 -0.772926845896065 0.0
   outer loop
      vertex -3275.15235482776 -1539.01492969056 4.47559099684106
      vertex -3276.52035593697 -1537.89193846731 -0.0254000012064353
      vertex -3275.15235482776 -1539.01492969056 -0.0254000012064353
   endloop
endfacet
facet normal -0.634495146469349 -0.772926845896065 0.0
   outer loop
      vertex -3276.52035593697 -1537.89193846731 -0.0254000012064353
      vertex -3275.15235482776 -1539.01492969056 4.47559099684106
      vertex -3276.52035593697 -1537.89193846731 4.47559099684106
   endloop
endfacet
facet normal 0.773151920780549 -0.634220866412756 0.0
   outer loop
      vertex -3262.6263789032 -1536.52293790942 -0.0254000012064353
      vertex -3263.74937775583 -1537.89193846731 2.37259527722751
      vertex -3263.74937775583 -1537.89193846731 -0.0254000012064353
   endloop
endfacet
facet normal 0.773151920780549 -0.634220866412756 0.0
   outer loop
      vertex -3263.74937775583 -1537.89193846731 2.37259527722751
      vertex -3262.6263789032 -1536.52293790942 -0.0254000012064353
      vertex -3262.6263789032 -1536.52293790942 2.37259527722751
   endloop
endfacet
facet normal 0.555156866712143 -0.831745666260039 0.0
   outer loop
      vertex -3271.43536702249 -1528.00495720371 2.37259527722751
      vertex -3272.69535900934 -1528.8459513103 -0.0254000012064353
      vertex -3271.43536702249 -1528.00495720371 -0.0254000012064353
   endloop
endfacet
facet normal 0.555156866712143 -0.831745666260039 0.0
   outer loop
      vertex -3272.69535900934 -1528.8459513103 -0.0254000012064353
      vertex -3271.43536702249 -1528.00495720371 2.37259527722751
      vertex -3272.69535900934 -1528.8459513103 2.37259527722751
   endloop
endfacet
facet normal -0.773151920780549 -0.634220866412756 0.0
   outer loop
      vertex -3277.6433547896 -1536.52293790942 4.47559099684106
      vertex -3276.52035593697 -1537.89193846731 -0.0254000012064353
      vertex -3276.52035593697 -1537.89193846731 4.47559099684106
   endloop
endfacet
facet normal -0.773151920780549 -0.634220866412756 0.0
   outer loop
      vertex -3276.52035593697 -1537.89193846731 -0.0254000012064353
      vertex -3277.6433547896 -1536.52293790942 4.47559099684106
      vertex -3277.6433547896 -1536.52293790942 -0.0254000012064353
   endloop
endfacet
facet normal 0.258865089767054 -0.965913487482132 0.0
   outer loop
      vertex -3266.97437740933 -1524.59096256687 4.47559099684106
      vertex -3267.72437590933 -1524.79196237849 -0.025400001206443
      vertex -3266.97437740933 -1524.59096256687 -0.025400001206443
   endloop
endfacet
facet normal 0.258865089767054 -0.965913487482132 0.0
   outer loop
      vertex -3267.72437590933 -1524.79196237849 -0.025400001206443
      vertex -3266.97437740933 -1524.59096256687 4.47559099684106
      vertex -3267.72437590933 -1524.79196237849 4.47559099684106
   endloop
endfacet
facet normal -0.194723316097957 0.980858211041645 -0.0
   outer loop
      vertex -3268.46237339574 -1535.18093772477 2.37259527722751
      vertex -3269.94837048477 -1535.4759429331 -0.0254000012064353
      vertex -3269.94837048477 -1535.4759429331 2.37259527722751
   endloop
endfacet
facet normal -0.0 -0.0 1.0
   outer loop
      vertex -3263.99385358524 -1538.09247670148 2.37259527722751
      vertex -3269.94837048477 -1535.4759429331 2.37259527722751
      vertex -3271.37700990044 -1535.19251912251 2.37259527722751
   endloop
endfacet
facet normal -0.0 -0.0 1.0
   outer loop
      vertex -3269.94837048477 -1535.4759429331 2.37259527722751
      vertex -3263.99385358524 -1538.09247670148 2.37259527722751
      vertex -3268.46237339574 -1535.18093772477 2.37259527722751
   endloop
endfacet
facet normal -0.0 -0.0 1.0
   outer loop
      vertex -3268.46237339574 -1535.18093772477 2.37259527722751
      vertex -3263.99385358524 -1538.09247670148 2.37259527722751
      vertex -3267.20237377951 -1534.3389441695 2.37259527722751
   endloop
endfacet
facet normal -0.0 -0.0 1.0
   outer loop
      vertex -3267.20237377951 -1534.3389441695 2.37259527722751
      vertex -3263.99385358524 -1538.09247670148 2.37259527722751
      vertex -3266.36037259486 -1533.07894455328 2.37259527722751
   endloop
endfacet
facet normal -0.0 -0.0 1.0
   outer loop
      vertex -3266.36037259486 -1533.07894455328 2.37259527722751
      vertex -3263.99385358524 -1538.09247670148 2.37259527722751
      vertex -3266.06537501591 -1531.59294746424 2.37259527722751
   endloop
endfacet
facet normal -0.0 -0.0 1.0
   outer loop
      vertex -3266.36037259486 -1530.10595092652 2.37259527722751
      vertex -3261.24469068758 -1532.92670791927 2.37259527722751
      vertex -3267.20237377951 -1528.8459513103 2.37259527722751
   endloop
endfacet
facet normal -0.0 -0.0 1.0
   outer loop
      vertex -3261.24469068758 -1532.92670791927 2.37259527722751
      vertex -3266.36037259486 -1530.10595092652 2.37259527722751
      vertex -3266.06537501591 -1531.59294746424 2.37259527722751
   endloop
endfacet
facet normal -0.0 -0.0 1.0
   outer loop
      vertex -3261.24469068758 -1532.92670791927 2.37259527722751
      vertex -3266.06537501591 -1531.59294746424 2.37259527722751
      vertex -3263.99385358524 -1538.09247670148 2.37259527722751
   endloop
endfacet
facet normal -0.0 -0.0 1.0
   outer loop
      vertex -3261.24469068758 -1532.92670791927 2.37259527722751
      vertex -3263.99385358524 -1538.09247670148 2.37259527722751
      vertex -3263.74937775583 -1537.89193846731 2.37259527722751
   endloop
endfacet
facet normal -0.0 -0.0 1.0
   outer loop
      vertex -3261.24469068758 -1532.92670791927 2.37259527722751
      vertex -3263.74937775583 -1537.89193846731 2.37259527722751
      vertex -3262.6263789032 -1536.52293790942 2.37259527722751
   endloop
endfacet
facet normal -0.0 -0.0 1.0
   outer loop
      vertex -3261.24469068758 -1532.92670791927 2.37259527722751
      vertex -3262.6263789032 -1536.52293790942 2.37259527722751
      vertex -3261.79238093741 -1534.96194402213 2.37259527722751
   endloop
endfacet
facet normal -0.0 -0.0 1.0
   outer loop
      vertex -3261.24469068758 -1532.92670791927 2.37259527722751
      vertex -3261.79238093741 -1534.96194402213 2.37259527722751
      vertex -3261.27838202644 -1533.26794716599 2.37259527722751
   endloop
endfacet
facet normal -0.0 -0.0 1.0
   outer loop
      vertex -3267.20237377951 -1528.8459513103 2.37259527722751
      vertex -3268.0436959494 -1528.24316931274 2.37259527722751
      vertex -3268.36200128203 -1528.0719507831 2.37259527722751
   endloop
endfacet
facet normal -0.0 -0.0 1.0
   outer loop
      vertex -3268.02337128302 -1528.20495375196 2.37259527722751
      vertex -3268.36200128203 -1528.0719507831 2.37259527722751
      vertex -3268.0436959494 -1528.24316931274 2.37259527722751
   endloop
endfacet
facet normal 0.634220469186256 -0.77315224662751 0.0
   outer loop
      vertex -3263.99385358524 -1538.09247670148 2.37259527722751
      vertex -3265.11837831372 -1539.01492969056 4.47559099684106
      vertex -3265.11837831372 -1539.01492969056 -0.0254000012064353
   endloop
endfacet
facet normal 0.634220469186256 -0.77315224662751 0.0
   outer loop
      vertex -3265.11837831372 -1539.01492969056 4.47559099684106
      vertex -3263.99385358524 -1538.09247670148 2.37259527722751
      vertex -3263.99385358524 -1538.09247670148 4.47559099684106
   endloop
endfacet
facet normal 0.194594799394716 0.980883715864694 1.39178975680029e-017
   outer loop
      vertex -3269.94837048477 -1535.4759429331 2.37259527722751
      vertex -3269.94837048477 -1535.4759429331 -0.0254000012064353
      vertex -3271.37700990044 -1535.19251912251 2.37259527722751
   endloop
endfacet
facet normal 0.19459739527191 0.980883200870932 1.60739848273142e-006
   outer loop
      vertex -3271.37700990044 -1535.19251912251 2.37259527722751
      vertex -3269.94837048477 -1535.4759429331 -0.0254000012064353
      vertex -3271.43536702249 -1535.18093772477 -0.0254000012064353
   endloop
endfacet
facet normal -0.0 -0.0 1.0
   outer loop
      vertex -3272.69732738919 -1534.33600685848 2.37259527722751
      vertex -3278.99135166635 -1529.74495158749 2.37259527722751
      vertex -3279.01497222458 -1529.98405633389 2.37259527722751
   endloop
endfacet
facet normal -0.0 -0.0 1.0
   outer loop
      vertex -3278.99135166635 -1529.74495158749 2.37259527722751
      vertex -3272.69732738919 -1534.33600685848 2.37259527722751
      vertex -3278.47835220407 -1528.05095473135 2.37259527722751
   endloop
endfacet
facet normal -0.0 -0.0 1.0
   outer loop
      vertex -3278.47835220407 -1528.05095473135 2.37259527722751
      vertex -3272.69732738919 -1534.33600685848 2.37259527722751
      vertex -3273.5363607453 -1533.07894455328 2.37259527722751
   endloop
endfacet
facet normal -0.0 -0.0 1.0
   outer loop
      vertex -3278.47835220407 -1528.05095473135 2.37259527722751
      vertex -3273.5363607453 -1533.07894455328 2.37259527722751
      vertex -3277.6433547896 -1526.48895758069 2.37259527722751
   endloop
endfacet
facet normal -0.0 -0.0 1.0
   outer loop
      vertex -3277.6433547896 -1526.48895758069 2.37259527722751
      vertex -3273.5363607453 -1533.07894455328 2.37259527722751
      vertex -3276.52035593697 -1525.12096028617 2.37259527722751
   endloop
endfacet
facet normal -0.0 -0.0 1.0
   outer loop
      vertex -3276.52035593697 -1525.12096028617 2.37259527722751
      vertex -3273.5363607453 -1533.07894455328 2.37259527722751
      vertex -3276.31152456752 -1524.94953194861 2.37259527722751
   endloop
endfacet
facet normal -0.0 -0.0 1.0
   outer loop
      vertex -3276.31152456752 -1524.94953194861 2.37259527722751
      vertex -3273.5363607453 -1533.07894455328 2.37259527722751
      vertex -3273.83235777293 -1531.59294746424 2.37259527722751
   endloop
endfacet
facet normal -0.0 -0.0 1.0
   outer loop
      vertex -3276.31152456752 -1524.94953194861 2.37259527722751
      vertex -3269.94837048477 -1527.7089525467 2.37259527722751
      vertex -3268.60478338924 -1527.97659117158 2.37259527722751
   endloop
endfacet
facet normal -0.0 -0.0 1.0
   outer loop
      vertex -3269.94837048477 -1527.7089525467 2.37259527722751
      vertex -3276.31152456752 -1524.94953194861 2.37259527722751
      vertex -3271.43536702249 -1528.00495720371 2.37259527722751
   endloop
endfacet
facet normal -0.0 -0.0 1.0
   outer loop
      vertex -3271.43536702249 -1528.00495720371 2.37259527722751
      vertex -3276.31152456752 -1524.94953194861 2.37259527722751
      vertex -3272.69535900934 -1528.8459513103 2.37259527722751
   endloop
endfacet
facet normal -0.0 -0.0 1.0
   outer loop
      vertex -3272.69535900934 -1528.8459513103 2.37259527722751
      vertex -3276.31152456752 -1524.94953194861 2.37259527722751
      vertex -3273.5363607453 -1530.10595092652 2.37259527722751
   endloop
endfacet
facet normal -0.0 -0.0 1.0
   outer loop
      vertex -3273.5363607453 -1530.10595092652 2.37259527722751
      vertex -3276.31152456752 -1524.94953194861 2.37259527722751
      vertex -3273.83235777293 -1531.59294746424 2.37259527722751
   endloop
endfacet
facet normal 0.634208270556224 -0.77316225306082 5.85356142197579e-018
   outer loop
      vertex -3263.99385358524 -1538.09247670148 2.37259527722751
      vertex -3263.74937775583 -1537.89193846731 -0.0254000012064353
      vertex -3263.74937775583 -1537.89193846731 2.37259527722751
   endloop
endfacet
facet normal -0.881773553959692 -0.471672979443696 0.0
   outer loop
      vertex -3278.47835220407 -1534.96194402213 4.47559099684106
      vertex -3277.6433547896 -1536.52293790942 -0.0254000012064353
      vertex -3277.6433547896 -1536.52293790942 4.47559099684106
   endloop
endfacet
facet normal -0.881773553959692 -0.471672979443696 0.0
   outer loop
      vertex -3277.6433547896 -1536.52293790942 -0.0254000012064353
      vertex -3278.47835220407 -1534.96194402213 4.47559099684106
      vertex -3278.47835220407 -1534.96194402213 -0.0254000012064353
   endloop
endfacet
facet normal 0.558897347457997 0.829230887114744 0.00314497365796059
   outer loop
      vertex -3272.61829464931 -1534.39044247959 2.37259527722751
      vertex -3271.47654278243 -1535.15341855373 2.37259527722751
      vertex -3271.43536702249 -1535.18093772477 -0.0254000012064353
   endloop
endfacet
facet normal 0.558897347457997 0.829230887114744 0.00314497365796059
   outer loop
      vertex -3271.47654278243 -1535.15341855373 2.37259527722751
      vertex -3272.61829464931 -1534.39044247959 2.37259527722751
      vertex -3271.71204646181 -1535.01471643856 2.37259527722751
   endloop
endfacet
facet normal 0.980758134488178 -0.195226744159883 0.0
   outer loop
      vertex -3273.5363607453 -1530.10595092652 -0.0254000012064353
      vertex -3273.83235777293 -1531.59294746424 2.37259527722751
      vertex -3273.83235777293 -1531.59294746424 -0.0254000012064353
   endloop
endfacet
facet normal 0.980758134488178 -0.195226744159883 0.0
   outer loop
      vertex -3273.83235777293 -1531.59294746424 2.37259527722751
      vertex -3273.5363607453 -1530.10595092652 -0.0254000012064353
      vertex -3273.5363607453 -1530.10595092652 2.37259527722751
   endloop
endfacet
facet normal 0.831744892939235 -0.555158025313064 0.0
   outer loop
      vertex -3272.69535900934 -1528.8459513103 -0.0254000012064353
      vertex -3273.5363607453 -1530.10595092652 2.37259527722751
      vertex -3273.5363607453 -1530.10595092652 -0.0254000012064353
   endloop
endfacet
facet normal 0.831744892939235 -0.555158025313064 0.0
   outer loop
      vertex -3273.5363607453 -1530.10595092652 2.37259527722751
      vertex -3272.69535900934 -1528.8459513103 -0.0254000012064353
      vertex -3272.69535900934 -1528.8459513103 2.37259527722751
   endloop
endfacet
facet normal -0.258865089767054 -0.965913487482132 -0.0
   outer loop
      vertex -3266.22437890933 -1524.79196237849 4.47559099684106
      vertex -3266.97437740933 -1524.59096256687 -0.025400001206443
      vertex -3266.22437890933 -1524.79196237849 -0.025400001206443
   endloop
endfacet
facet normal -0.258865089767054 -0.965913487482132 -0.0
   outer loop
      vertex -3266.97437740933 -1524.59096256687 -0.025400001206443
      vertex -3266.22437890933 -1524.79196237849 4.47559099684106
      vertex -3266.97437740933 -1524.59096256687 4.47559099684106
   endloop
endfacet
facet normal -0.555154541209603 -0.831747218434987 1.2986856748367e-007
   outer loop
      vertex -3268.36200128203 -1528.0719507831 2.37259527722751
      vertex -3268.46237339574 -1528.00495720371 -0.0254000012064353
      vertex -3267.20237377951 -1528.8459513103 -0.0254000012064353
   endloop
endfacet
facet normal -0.555154726997107 -0.831747094430012 0.0
   outer loop
      vertex -3268.36200128203 -1528.0719507831 2.37259527722751
      vertex -3267.20237377951 -1528.8459513103 -0.0254000012064353
      vertex -3267.20237377951 -1528.8459513103 2.37259527722751
   endloop
endfacet
facet normal 0.0 0.0 1.0
   outer loop
      vertex -3261.24469068758 -1532.92670791927 4.47559099684106
      vertex -3268.02337128302 -1528.20495375196 4.47559099684106
      vertex -3268.0436959494 -1528.24316931274 4.47559099684106
   endloop
endfacet
facet normal 0.0 0.0 1.0
   outer loop
      vertex -3268.02337128302 -1528.20495375196 4.47559099684106
      vertex -3261.24469068758 -1532.92670791927 4.47559099684106
      vertex -3267.72437590933 -1527.38995294056 4.47559099684106
   endloop
endfacet
facet normal 0.0 0.0 1.0
   outer loop
      vertex -3267.72437590933 -1527.38995294056 4.47559099684106
      vertex -3261.24469068758 -1532.92670791927 4.47559099684106
      vertex -3266.97437740933 -1527.59195601556 4.47559099684106
   endloop
endfacet
facet normal 0.0 0.0 1.0
   outer loop
      vertex -3266.97437740933 -1527.59195601556 4.47559099684106
      vertex -3261.24469068758 -1532.92670791927 4.47559099684106
      vertex -3266.22437890933 -1527.38995294056 4.47559099684106
   endloop
endfacet
facet normal 0.0 0.0 1.0
   outer loop
      vertex -3266.22437890933 -1527.38995294056 4.47559099684106
      vertex -3261.24469068758 -1532.92670791927 4.47559099684106
      vertex -3265.67537640627 -1526.84095806687 4.47559099684106
   endloop
endfacet
facet normal 0.0 0.0 1.0
   outer loop
      vertex -3265.67537640627 -1526.84095806687 4.47559099684106
      vertex -3261.24469068758 -1532.92670791927 4.47559099684106
      vertex -3265.47337333127 -1526.09095956687 4.47559099684106
   endloop
endfacet
facet normal 0.0 0.0 1.0
   outer loop
      vertex -3265.47337333127 -1526.09095956687 4.47559099684106
      vertex -3261.24469068758 -1532.92670791927 4.47559099684106
      vertex -3265.11837831372 -1523.99796524823 4.47559099684106
   endloop
endfacet
facet normal 0.0 0.0 1.0
   outer loop
      vertex -3265.11837831372 -1523.99796524823 4.47559099684106
      vertex -3261.24469068758 -1532.92670791927 4.47559099684106
      vertex -3263.74937775583 -1525.12096028617 4.47559099684106
   endloop
endfacet
facet normal 0.0 0.0 1.0
   outer loop
      vertex -3263.74937775583 -1525.12096028617 4.47559099684106
      vertex -3261.24469068758 -1532.92670791927 4.47559099684106
      vertex -3262.6263789032 -1526.48895758069 4.47559099684106
   endloop
endfacet
facet normal 0.0 0.0 1.0
   outer loop
      vertex -3262.6263789032 -1526.48895758069 4.47559099684106
      vertex -3261.24469068758 -1532.92670791927 4.47559099684106
      vertex -3261.79238093741 -1528.05095473135 4.47559099684106
   endloop
endfacet
facet normal 0.0 0.0 1.0
   outer loop
      vertex -3261.79238093741 -1528.05095473135 4.47559099684106
      vertex -3261.24469068758 -1532.92670791927 4.47559099684106
      vertex -3261.27838202644 -1529.74495158749 4.47559099684106
   endloop
endfacet
facet normal 0.0 0.0 1.0
   outer loop
      vertex -3261.27838202644 -1529.74495158749 4.47559099684106
      vertex -3261.24469068758 -1532.92670791927 4.47559099684106
      vertex -3261.10438640276 -1531.5059496524 4.47559099684106
   endloop
endfacet
facet normal 0.0 0.0 1.0
   outer loop
      vertex -3268.60478338924 -1527.97659117158 4.47559099684106
      vertex -3275.15235482776 -1523.99796524823 4.47559099684106
      vertex -3276.31152456752 -1524.94953194861 4.47559099684106
   endloop
endfacet
facet normal 0.0 0.0 1.0
   outer loop
      vertex -3275.15235482776 -1523.99796524823 4.47559099684106
      vertex -3268.60478338924 -1527.97659117158 4.47559099684106
      vertex -3273.59036149179 -1523.16296401907 4.47559099684106
   endloop
endfacet
facet normal 0.0 0.0 1.0
   outer loop
      vertex -3273.59036149179 -1523.16296401907 4.47559099684106
      vertex -3268.60478338924 -1527.97659117158 4.47559099684106
      vertex -3271.89636463565 -1522.64996455679 4.47559099684106
   endloop
endfacet
facet normal 0.0 0.0 1.0
   outer loop
      vertex -3271.89636463565 -1522.64996455679 4.47559099684106
      vertex -3268.60478338924 -1527.97659117158 4.47559099684106
      vertex -3270.13536657074 -1522.47596511841 4.47559099684106
   endloop
endfacet
facet normal 0.0 0.0 1.0
   outer loop
      vertex -3270.13536657074 -1522.47596511841 4.47559099684106
      vertex -3268.60478338924 -1527.97659117158 4.47559099684106
      vertex -3268.37336905714 -1522.64996455679 4.47559099684106
   endloop
endfacet
facet normal 0.0 0.0 1.0
   outer loop
      vertex -3268.37336905714 -1522.64996455679 4.47559099684106
      vertex -3268.60478338924 -1527.97659117158 4.47559099684106
      vertex -3268.47437440933 -1526.09095956687 4.47559099684106
   endloop
endfacet
facet normal 0.0 0.0 1.0
   outer loop
      vertex -3268.37336905714 -1522.64996455679 4.47559099684106
      vertex -3268.47437440933 -1526.09095956687 4.47559099684106
      vertex -3268.27337078302 -1525.34096106687 4.47559099684106
   endloop
endfacet
facet normal 0.0 0.0 1.0
   outer loop
      vertex -3268.37336905714 -1522.64996455679 4.47559099684106
      vertex -3268.27337078302 -1525.34096106687 4.47559099684106
      vertex -3266.679372201 -1523.16296401907 4.47559099684106
   endloop
endfacet
facet normal 0.0 0.0 1.0
   outer loop
      vertex -3266.679372201 -1523.16296401907 4.47559099684106
      vertex -3268.27337078302 -1525.34096106687 4.47559099684106
      vertex -3267.72437590933 -1524.79196237849 4.47559099684106
   endloop
endfacet
facet normal 0.0 0.0 1.0
   outer loop
      vertex -3266.679372201 -1523.16296401907 4.47559099684106
      vertex -3267.72437590933 -1524.79196237849 4.47559099684106
      vertex -3266.97437740933 -1524.59096256687 4.47559099684106
   endloop
endfacet
facet normal 0.0 0.0 1.0
   outer loop
      vertex -3266.679372201 -1523.16296401907 4.47559099684106
      vertex -3266.97437740933 -1524.59096256687 4.47559099684106
      vertex -3266.22437890933 -1524.79196237849 4.47559099684106
   endloop
endfacet
facet normal 0.0 0.0 1.0
   outer loop
      vertex -3266.679372201 -1523.16296401907 4.47559099684106
      vertex -3266.22437890933 -1524.79196237849 4.47559099684106
      vertex -3265.11837831372 -1523.99796524823 4.47559099684106
   endloop
endfacet
facet normal 0.0 0.0 1.0
   outer loop
      vertex -3265.11837831372 -1523.99796524823 4.47559099684106
      vertex -3266.22437890933 -1524.79196237849 4.47559099684106
      vertex -3265.67537640627 -1525.34096106687 4.47559099684106
   endloop
endfacet
facet normal 0.0 0.0 1.0
   outer loop
      vertex -3265.11837831372 -1523.99796524823 4.47559099684106
      vertex -3265.67537640627 -1525.34096106687 4.47559099684106
      vertex -3265.47337333127 -1526.09095956687 4.47559099684106
   endloop
endfacet
facet normal 0.0 0.0 1.0
   outer loop
      vertex -3268.46237339574 -1528.00495720371 4.47559099684106
      vertex -3268.47437440933 -1526.09095956687 4.47559099684106
      vertex -3268.60478338924 -1527.97659117158 4.47559099684106
   endloop
endfacet
facet normal 0.0 0.0 1.0
   outer loop
      vertex -3268.47437440933 -1526.09095956687 4.47559099684106
      vertex -3268.46237339574 -1528.00495720371 4.47559099684106
      vertex -3268.27337078302 -1526.84095806687 4.47559099684106
   endloop
endfacet
facet normal 0.0 0.0 1.0
   outer loop
      vertex -3268.27337078302 -1526.84095806687 4.47559099684106
      vertex -3268.46237339574 -1528.00495720371 4.47559099684106
      vertex -3268.36200128203 -1528.0719507831 4.47559099684106
   endloop
endfacet
facet normal 0.0 0.0 1.0
   outer loop
      vertex -3268.27337078302 -1526.84095806687 4.47559099684106
      vertex -3268.36200128203 -1528.0719507831 4.47559099684106
      vertex -3268.02337128302 -1528.20495375196 4.47559099684106
   endloop
endfacet
facet normal 0.0 0.0 1.0
   outer loop
      vertex -3268.27337078302 -1526.84095806687 4.47559099684106
      vertex -3268.02337128302 -1528.20495375196 4.47559099684106
      vertex -3267.72437590933 -1527.38995294056 4.47559099684106
   endloop
endfacet
facet normal -0.707104324542951 -0.707109237821609 -0.0
   outer loop
      vertex -3265.67537640627 -1525.34096106687 4.47559099684106
      vertex -3266.22437890933 -1524.79196237849 -0.025400001206443
      vertex -3265.67537640627 -1525.34096106687 -0.025400001206443
   endloop
endfacet
facet normal -0.707104324542951 -0.707109237821609 -0.0
   outer loop
      vertex -3266.22437890933 -1524.79196237849 -0.025400001206443
      vertex -3265.67537640627 -1525.34096106687 4.47559099684106
      vertex -3266.22437890933 -1524.79196237849 4.47559099684106
   endloop
endfacet
facet normal 0.0 0.0 -1.0
   outer loop
      vertex -3268.47437440933 -1526.09095956687 -0.025400001206443
      vertex -3268.46237339574 -1528.00495720371 -0.0254000012064353
      vertex -3269.94837048477 -1527.7089525467 -0.0254000012064353
   endloop
endfacet
facet normal 0.0 0.0 -1.0
   outer loop
      vertex -3268.46237339574 -1528.00495720371 -0.0254000012064353
      vertex -3268.47437440933 -1526.09095956687 -0.025400001206443
      vertex -3268.27337078302 -1526.84095806687 -0.025400001206443
   endloop
endfacet
facet normal 0.0 0.0 -1.0
   outer loop
      vertex -3268.46237339574 -1528.00495720371 -0.0254000012064353
      vertex -3268.27337078302 -1526.84095806687 -0.025400001206443
      vertex -3267.20237377951 -1528.8459513103 -0.0254000012064353
   endloop
endfacet
facet normal 0.0 0.0 -1.0
   outer loop
      vertex -3267.20237377951 -1528.8459513103 -0.0254000012064353
      vertex -3268.27337078302 -1526.84095806687 -0.025400001206443
      vertex -3267.72437590933 -1527.38995294056 -0.025400001206443
   endloop
endfacet
facet normal 0.0 0.0 -1.0
   outer loop
      vertex -3267.20237377951 -1528.8459513103 -0.0254000012064353
      vertex -3267.72437590933 -1527.38995294056 -0.025400001206443
      vertex -3266.97437740933 -1527.59195601556 -0.025400001206443
   endloop
endfacet
facet normal 0.0 0.0 -1.0
   outer loop
      vertex -3267.20237377951 -1528.8459513103 -0.0254000012064353
      vertex -3266.97437740933 -1527.59195601556 -0.025400001206443
      vertex -3266.36037259486 -1530.10595092652 -0.0254000012064353
   endloop
endfacet
facet normal 0.0 0.0 -1.0
   outer loop
      vertex -3266.36037259486 -1530.10595092652 -0.0254000012064353
      vertex -3266.97437740933 -1527.59195601556 -0.025400001206443
      vertex -3266.22437890933 -1527.38995294056 -0.025400001206443
   endloop
endfacet
facet normal 0.0 0.0 -1.0
   outer loop
      vertex -3266.36037259486 -1530.10595092652 -0.0254000012064353
      vertex -3266.22437890933 -1527.38995294056 -0.025400001206443
      vertex -3266.06537501591 -1531.59294746424 -0.0254000012064353
   endloop
endfacet
facet normal 0.0 0.0 -1.0
   outer loop
      vertex -3266.06537501591 -1531.59294746424 -0.0254000012064353
      vertex -3266.22437890933 -1527.38995294056 -0.025400001206443
      vertex -3265.67537640627 -1526.84095806687 -0.025400001206443
   endloop
endfacet
facet normal 0.0 0.0 -1.0
   outer loop
      vertex -3278.99135166635 -1529.74495158749 -0.0254000012064353
      vertex -3278.99135166635 -1533.26794716599 -0.0254000012064353
      vertex -3279.16534729004 -1531.5059496524 -0.0254000012064353
   endloop
endfacet
facet normal 0.0 0.0 -1.0
   outer loop
      vertex -3278.99135166635 -1533.26794716599 -0.0254000012064353
      vertex -3278.99135166635 -1529.74495158749 -0.0254000012064353
      vertex -3278.47835220407 -1528.05095473135 -0.0254000012064353
   endloop
endfacet
facet normal 0.0 0.0 -1.0
   outer loop
      vertex -3278.99135166635 -1533.26794716599 -0.0254000012064353
      vertex -3278.47835220407 -1528.05095473135 -0.0254000012064353
      vertex -3278.47835220407 -1534.96194402213 -0.0254000012064353
   endloop
endfacet
facet normal 0.0 0.0 -1.0
   outer loop
      vertex -3278.47835220407 -1534.96194402213 -0.0254000012064353
      vertex -3278.47835220407 -1528.05095473135 -0.0254000012064353
      vertex -3277.6433547896 -1526.48895758069 -0.0254000012064353
   endloop
endfacet
facet normal 0.0 0.0 -1.0
   outer loop
      vertex -3278.47835220407 -1534.96194402213 -0.0254000012064353
      vertex -3277.6433547896 -1526.48895758069 -0.0254000012064353
      vertex -3277.6433547896 -1536.52293790942 -0.0254000012064353
   endloop
endfacet
facet normal 0.0 0.0 -1.0
   outer loop
      vertex -3277.6433547896 -1536.52293790942 -0.0254000012064353
      vertex -3277.6433547896 -1526.48895758069 -0.0254000012064353
      vertex -3276.52035593697 -1525.12096028617 -0.0254000012064353
   endloop
endfacet
facet normal 0.0 0.0 -1.0
   outer loop
      vertex -3277.6433547896 -1536.52293790942 -0.0254000012064353
      vertex -3276.52035593697 -1525.12096028617 -0.0254000012064353
      vertex -3276.52035593697 -1537.89193846731 -0.0254000012064353
   endloop
endfacet
facet normal 0.0 0.0 -1.0
   outer loop
      vertex -3276.52035593697 -1537.89193846731 -0.0254000012064353
      vertex -3276.52035593697 -1525.12096028617 -0.0254000012064353
      vertex -3275.15235482776 -1523.99796524823 -0.0254000012064353
   endloop
endfacet
facet normal 0.0 0.0 -1.0
   outer loop
      vertex -3276.52035593697 -1537.89193846731 -0.0254000012064353
      vertex -3275.15235482776 -1523.99796524823 -0.0254000012064353
      vertex -3275.15235482776 -1539.01492969056 -0.0254000012064353
   endloop
endfacet
facet normal 0.0 0.0 -1.0
   outer loop
      vertex -3275.15235482776 -1539.01492969056 -0.0254000012064353
      vertex -3275.15235482776 -1523.99796524823 -0.0254000012064353
      vertex -3273.59036149179 -1523.16296401907 -0.0254000012064353
   endloop
endfacet
facet normal 0.0 0.0 -1.0
   outer loop
      vertex -3275.15235482776 -1539.01492969056 -0.0254000012064353
      vertex -3273.59036149179 -1523.16296401907 -0.0254000012064353
      vertex -3274.67535840626 -1536.99093929275 -0.0254000012064353
   endloop
endfacet
facet normal 0.0 0.0 -1.0
   outer loop
      vertex -3274.67535840626 -1536.99093929275 -0.0254000012064353
      vertex -3273.59036149179 -1523.16296401907 -0.0254000012064353
      vertex -3274.47335533127 -1536.24094079275 -0.0254000012064353
   endloop
endfacet
facet normal 0.0 0.0 -1.0
   outer loop
      vertex -3274.47335533127 -1536.24094079275 -0.0254000012064353
      vertex -3273.59036149179 -1523.16296401907 -0.0254000012064353
      vertex -3273.83235777293 -1531.59294746424 -0.0254000012064353
   endloop
endfacet
facet normal 0.0 0.0 -1.0
   outer loop
      vertex -3274.47335533127 -1536.24094079275 -0.0254000012064353
      vertex -3273.83235777293 -1531.59294746424 -0.0254000012064353
      vertex -3273.92436045758 -1535.69193828968 -0.0254000012064353
   endloop
endfacet
facet normal 0.0 0.0 -1.0
   outer loop
      vertex -3273.83235777293 -1531.59294746424 -0.0254000012064353
      vertex -3273.59036149179 -1523.16296401907 -0.0254000012064353
      vertex -3273.5363607453 -1530.10595092652 -0.0254000012064353
   endloop
endfacet
facet normal 0.0 0.0 -1.0
   outer loop
      vertex -3273.5363607453 -1530.10595092652 -0.0254000012064353
      vertex -3273.59036149179 -1523.16296401907 -0.0254000012064353
      vertex -3271.89636463565 -1522.64996455679 -0.0254000012064353
   endloop
endfacet
facet normal 0.0 0.0 -1.0
   outer loop
      vertex -3273.5363607453 -1530.10595092652 -0.0254000012064353
      vertex -3271.89636463565 -1522.64996455679 -0.0254000012064353
      vertex -3272.69535900934 -1528.8459513103 -0.0254000012064353
   endloop
endfacet
facet normal 0.0 0.0 -1.0
   outer loop
      vertex -3272.69535900934 -1528.8459513103 -0.0254000012064353
      vertex -3271.89636463565 -1522.64996455679 -0.0254000012064353
      vertex -3271.43536702249 -1528.00495720371 -0.0254000012064353
   endloop
endfacet
facet normal 0.0 0.0 -1.0
   outer loop
      vertex -3271.43536702249 -1528.00495720371 -0.0254000012064353
      vertex -3271.89636463565 -1522.64996455679 -0.0254000012064353
      vertex -3270.13536657074 -1522.47596511841 -0.0254000012064353
   endloop
endfacet
facet normal 0.0 0.0 -1.0
   outer loop
      vertex -3271.43536702249 -1528.00495720371 -0.0254000012064353
      vertex -3270.13536657074 -1522.47596511841 -0.0254000012064353
      vertex -3269.94837048477 -1527.7089525467 -0.0254000012064353
   endloop
endfacet
facet normal 0.0 0.0 -1.0
   outer loop
      vertex -3269.94837048477 -1527.7089525467 -0.0254000012064353
      vertex -3270.13536657074 -1522.47596511841 -0.0254000012064353
      vertex -3268.37336905714 -1522.64996455679 -0.0254000012064353
   endloop
endfacet
facet normal 0.0 0.0 -1.0
   outer loop
      vertex -3269.94837048477 -1527.7089525467 -0.0254000012064353
      vertex -3268.37336905714 -1522.64996455679 -0.0254000012064353
      vertex -3268.47437440933 -1526.09095956687 -0.025400001206443
   endloop
endfacet
facet normal 0.0 0.0 -1.0
   outer loop
      vertex -3268.47437440933 -1526.09095956687 -0.025400001206443
      vertex -3268.37336905714 -1522.64996455679 -0.0254000012064353
      vertex -3268.27337078302 -1525.34096106687 -0.025400001206443
   endloop
endfacet
facet normal 0.0 0.0 -1.0
   outer loop
      vertex -3268.27337078302 -1525.34096106687 -0.025400001206443
      vertex -3268.37336905714 -1522.64996455679 -0.0254000012064353
      vertex -3266.679372201 -1523.16296401907 -0.0254000012064353
   endloop
endfacet
facet normal 0.0 0.0 -1.0
   outer loop
      vertex -3268.27337078302 -1525.34096106687 -0.025400001206443
      vertex -3266.679372201 -1523.16296401907 -0.0254000012064353
      vertex -3267.72437590933 -1524.79196237849 -0.025400001206443
   endloop
endfacet
facet normal 0.0 0.0 -1.0
   outer loop
      vertex -3267.72437590933 -1524.79196237849 -0.025400001206443
      vertex -3266.679372201 -1523.16296401907 -0.0254000012064353
      vertex -3266.97437740933 -1524.59096256687 -0.025400001206443
   endloop
endfacet
facet normal 0.0 0.0 -1.0
   outer loop
      vertex -3266.97437740933 -1524.59096256687 -0.025400001206443
      vertex -3266.679372201 -1523.16296401907 -0.0254000012064353
      vertex -3266.22437890933 -1524.79196237849 -0.025400001206443
   endloop
endfacet
facet normal 0.0 0.0 -1.0
   outer loop
      vertex -3266.22437890933 -1524.79196237849 -0.025400001206443
      vertex -3266.679372201 -1523.16296401907 -0.0254000012064353
      vertex -3265.11837831372 -1523.99796524823 -0.0254000012064353
   endloop
endfacet
facet normal 0.0 0.0 -1.0
   outer loop
      vertex -3266.22437890933 -1524.79196237849 -0.025400001206443
      vertex -3265.11837831372 -1523.99796524823 -0.0254000012064353
      vertex -3265.67537640627 -1525.34096106687 -0.025400001206443
   endloop
endfacet
facet normal 0.0 0.0 -1.0
   outer loop
      vertex -3265.67537640627 -1525.34096106687 -0.025400001206443
      vertex -3265.11837831372 -1523.99796524823 -0.0254000012064353
      vertex -3265.47337333127 -1526.09095956687 -0.025400001206443
   endloop
endfacet
facet normal 0.0 0.0 -1.0
   outer loop
      vertex -3275.15235482776 -1539.01492969056 -0.0254000012064353
      vertex -3274.47335533127 -1537.74093779275 -0.0254000012064353
      vertex -3273.59036149179 -1539.84893528573 -0.0254000012064353
   endloop
endfacet
facet normal 0.0 0.0 -1.0
   outer loop
      vertex -3274.47335533127 -1537.74093779275 -0.0254000012064353
      vertex -3275.15235482776 -1539.01492969056 -0.0254000012064353
      vertex -3274.67535840626 -1536.99093929275 -0.0254000012064353
   endloop
endfacet
facet normal 0.0 0.0 -1.0
   outer loop
      vertex -3273.59036149179 -1539.84893528573 -0.0254000012064353
      vertex -3274.47335533127 -1537.74093779275 -0.0254000012064353
      vertex -3273.92436045758 -1538.28993266644 -0.0254000012064353
   endloop
endfacet
facet normal 0.0 0.0 -1.0
   outer loop
      vertex -3273.59036149179 -1539.84893528573 -0.0254000012064353
      vertex -3273.92436045758 -1538.28993266644 -0.0254000012064353
      vertex -3273.17436195758 -1538.49193574143 -0.0254000012064353
   endloop
endfacet
facet normal 0.0 0.0 -1.0
   outer loop
      vertex -3273.59036149179 -1539.84893528573 -0.0254000012064353
      vertex -3273.17436195758 -1538.49193574143 -0.0254000012064353
      vertex -3271.89636463565 -1540.36293419669 -0.0254000012064353
   endloop
endfacet
facet normal 0.0 0.0 -1.0
   outer loop
      vertex -3271.89636463565 -1540.36293419669 -0.0254000012064353
      vertex -3273.17436195758 -1538.49193574143 -0.0254000012064353
      vertex -3272.42436345758 -1538.28993266644 -0.0254000012064353
   endloop
endfacet
facet normal 0.0 0.0 -1.0
   outer loop
      vertex -3271.89636463565 -1540.36293419669 -0.0254000012064353
      vertex -3272.42436345758 -1538.28993266644 -0.0254000012064353
      vertex -3271.87536095451 -1537.74093779275 -0.0254000012064353
   endloop
endfacet
facet normal 0.0 0.0 -1.0
   outer loop
      vertex -3271.89636463565 -1540.36293419669 -0.0254000012064353
      vertex -3271.87536095451 -1537.74093779275 -0.0254000012064353
      vertex -3270.13536657074 -1540.53692982038 -0.0254000012064353
   endloop
endfacet
facet normal 0.0 0.0 -1.0
   outer loop
      vertex -3270.13536657074 -1540.53692982038 -0.0254000012064353
      vertex -3271.87536095451 -1537.74093779275 -0.0254000012064353
      vertex -3271.67436495758 -1536.99093929275 -0.0254000012064353
   endloop
endfacet
facet normal 0.0 0.0 -1.0
   outer loop
      vertex -3270.13536657074 -1540.53692982038 -0.0254000012064353
      vertex -3271.67436495758 -1536.99093929275 -0.0254000012064353
      vertex -3271.43536702249 -1535.18093772477 -0.0254000012064353
   endloop
endfacet
facet normal 0.0 0.0 -1.0
   outer loop
      vertex -3270.13536657074 -1540.53692982038 -0.0254000012064353
      vertex -3271.43536702249 -1535.18093772477 -0.0254000012064353
      vertex -3269.94837048477 -1535.4759429331 -0.0254000012064353
   endloop
endfacet
facet normal 0.0 0.0 -1.0
   outer loop
      vertex -3270.13536657074 -1540.53692982038 -0.0254000012064353
      vertex -3269.94837048477 -1535.4759429331 -0.0254000012064353
      vertex -3268.37336905714 -1540.36293419669 -0.0254000012064353
   endloop
endfacet
facet normal 0.0 0.0 -1.0
   outer loop
      vertex -3268.37336905714 -1540.36293419669 -0.0254000012064353
      vertex -3269.94837048477 -1535.4759429331 -0.0254000012064353
      vertex -3268.46237339574 -1535.18093772477 -0.0254000012064353
   endloop
endfacet
facet normal 0.0 0.0 -1.0
   outer loop
      vertex -3268.37336905714 -1540.36293419669 -0.0254000012064353
      vertex -3268.46237339574 -1535.18093772477 -0.0254000012064353
      vertex -3267.20237377951 -1534.3389441695 -0.0254000012064353
   endloop
endfacet
facet normal 0.0 0.0 -1.0
   outer loop
      vertex -3268.37336905714 -1540.36293419669 -0.0254000012064353
      vertex -3267.20237377951 -1534.3389441695 -0.0254000012064353
      vertex -3266.679372201 -1539.84893528573 -0.0254000012064353
   endloop
endfacet
facet normal 0.0 0.0 -1.0
   outer loop
      vertex -3266.679372201 -1539.84893528573 -0.0254000012064353
      vertex -3267.20237377951 -1534.3389441695 -0.0254000012064353
      vertex -3266.36037259486 -1533.07894455328 -0.0254000012064353
   endloop
endfacet
facet normal 0.0 0.0 -1.0
   outer loop
      vertex -3266.679372201 -1539.84893528573 -0.0254000012064353
      vertex -3266.36037259486 -1533.07894455328 -0.0254000012064353
      vertex -3265.11837831372 -1539.01492969056 -0.0254000012064353
   endloop
endfacet
facet normal 0.0 0.0 -1.0
   outer loop
      vertex -3265.11837831372 -1539.01492969056 -0.0254000012064353
      vertex -3266.36037259486 -1533.07894455328 -0.0254000012064353
      vertex -3266.06537501591 -1531.59294746424 -0.0254000012064353
   endloop
endfacet
facet normal 0.0 0.0 -1.0
   outer loop
      vertex -3265.11837831372 -1539.01492969056 -0.0254000012064353
      vertex -3266.06537501591 -1531.59294746424 -0.0254000012064353
      vertex -3265.67537640627 -1526.84095806687 -0.025400001206443
   endloop
endfacet
facet normal 0.0 0.0 -1.0
   outer loop
      vertex -3265.11837831372 -1539.01492969056 -0.0254000012064353
      vertex -3265.67537640627 -1526.84095806687 -0.025400001206443
      vertex -3265.47337333127 -1526.09095956687 -0.025400001206443
   endloop
endfacet
facet normal 0.0 0.0 -1.0
   outer loop
      vertex -3265.11837831372 -1539.01492969056 -0.0254000012064353
      vertex -3265.47337333127 -1526.09095956687 -0.025400001206443
      vertex -3265.11837831372 -1523.99796524823 -0.0254000012064353
   endloop
endfacet
facet normal 0.0 0.0 -1.0
   outer loop
      vertex -3265.11837831372 -1539.01492969056 -0.0254000012064353
      vertex -3265.11837831372 -1523.99796524823 -0.0254000012064353
      vertex -3263.74937775583 -1525.12096028617 -0.0254000012064353
   endloop
endfacet
facet normal 0.0 0.0 -1.0
   outer loop
      vertex -3265.11837831372 -1539.01492969056 -0.0254000012064353
      vertex -3263.74937775583 -1525.12096028617 -0.0254000012064353
      vertex -3263.74937775583 -1537.89193846731 -0.0254000012064353
   endloop
endfacet
facet normal 0.0 0.0 -1.0
   outer loop
      vertex -3263.74937775583 -1537.89193846731 -0.0254000012064353
      vertex -3263.74937775583 -1525.12096028617 -0.0254000012064353
      vertex -3262.6263789032 -1526.48895758069 -0.0254000012064353
   endloop
endfacet
facet normal 0.0 0.0 -1.0
   outer loop
      vertex -3263.74937775583 -1537.89193846731 -0.0254000012064353
      vertex -3262.6263789032 -1526.48895758069 -0.0254000012064353
      vertex -3262.6263789032 -1536.52293790942 -0.0254000012064353
   endloop
endfacet
facet normal 0.0 0.0 -1.0
   outer loop
      vertex -3262.6263789032 -1536.52293790942 -0.0254000012064353
      vertex -3262.6263789032 -1526.48895758069 -0.0254000012064353
      vertex -3261.79238093741 -1528.05095473135 -0.0254000012064353
   endloop
endfacet
facet normal 0.0 0.0 -1.0
   outer loop
      vertex -3262.6263789032 -1536.52293790942 -0.0254000012064353
      vertex -3261.79238093741 -1528.05095473135 -0.0254000012064353
      vertex -3261.79238093741 -1534.96194402213 -0.0254000012064353
   endloop
endfacet
facet normal 0.0 0.0 -1.0
   outer loop
      vertex -3261.79238093741 -1534.96194402213 -0.0254000012064353
      vertex -3261.79238093741 -1528.05095473135 -0.0254000012064353
      vertex -3261.27838202644 -1529.74495158749 -0.0254000012064353
   endloop
endfacet
facet normal 0.0 0.0 -1.0
   outer loop
      vertex -3261.79238093741 -1534.96194402213 -0.0254000012064353
      vertex -3261.27838202644 -1529.74495158749 -0.0254000012064353
      vertex -3261.27838202644 -1533.26794716599 -0.0254000012064353
   endloop
endfacet
facet normal 0.0 0.0 -1.0
   outer loop
      vertex -3261.27838202644 -1533.26794716599 -0.0254000012064353
      vertex -3261.27838202644 -1529.74495158749 -0.0254000012064353
      vertex -3261.10438640276 -1531.5059496524 -0.0254000012064353
   endloop
endfacet
facet normal 0.0 0.0 -1.0
   outer loop
      vertex -3273.83235777293 -1531.59294746424 -0.0254000012064353
      vertex -3273.17436195758 -1535.49094229275 -0.0254000012064353
      vertex -3273.92436045758 -1535.69193828968 -0.0254000012064353
   endloop
endfacet
facet normal 0.0 0.0 -1.0
   outer loop
      vertex -3273.17436195758 -1535.49094229275 -0.0254000012064353
      vertex -3273.83235777293 -1531.59294746424 -0.0254000012064353
      vertex -3273.5363607453 -1533.07894455328 -0.0254000012064353
   endloop
endfacet
facet normal 0.0 0.0 -1.0
   outer loop
      vertex -3273.17436195758 -1535.49094229275 -0.0254000012064353
      vertex -3273.5363607453 -1533.07894455328 -0.0254000012064353
      vertex -3272.69535900934 -1534.3389441695 -0.0254000012064353
   endloop
endfacet
facet normal 0.0 0.0 -1.0
   outer loop
      vertex -3273.17436195758 -1535.49094229275 -0.0254000012064353
      vertex -3272.69535900934 -1534.3389441695 -0.0254000012064353
      vertex -3272.42436345758 -1535.69193828968 -0.0254000012064353
   endloop
endfacet
facet normal 0.0 0.0 -1.0
   outer loop
      vertex -3272.42436345758 -1535.69193828968 -0.0254000012064353
      vertex -3272.69535900934 -1534.3389441695 -0.0254000012064353
      vertex -3271.43536702249 -1535.18093772477 -0.0254000012064353
   endloop
endfacet
facet normal 0.0 0.0 -1.0
   outer loop
      vertex -3272.42436345758 -1535.69193828968 -0.0254000012064353
      vertex -3271.43536702249 -1535.18093772477 -0.0254000012064353
      vertex -3271.87536095451 -1536.24094079275 -0.0254000012064353
   endloop
endfacet
facet normal 0.0 0.0 -1.0
   outer loop
      vertex -3271.87536095451 -1536.24094079275 -0.0254000012064353
      vertex -3271.43536702249 -1535.18093772477 -0.0254000012064353
      vertex -3271.67436495758 -1536.99093929275 -0.0254000012064353
   endloop
endfacet
facet normal 0.995154225466605 0.0983263318544975 0.0
   outer loop
      vertex -3261.27838202644 -1529.74495158749 -0.0254000012064353
      vertex -3261.10438640276 -1531.5059496524 4.47559099684106
      vertex -3261.10438640276 -1531.5059496524 -0.0254000012064353
   endloop
endfacet
facet normal 0.995154225466605 0.0983263318544975 0.0
   outer loop
      vertex -3261.10438640276 -1531.5059496524 4.47559099684106
      vertex -3261.27838202644 -1529.74495158749 -0.0254000012064353
      vertex -3261.27838202644 -1529.74495158749 4.47559099684106
   endloop
endfacet
facet normal -0.83144023933873 -0.555614190251073 0.0
   outer loop
      vertex -3267.20237377951 -1528.8459513103 2.37259527722751
      vertex -3266.36037259486 -1530.10595092652 -0.0254000012064353
      vertex -3266.36037259486 -1530.10595092652 2.37259527722751
   endloop
endfacet
facet normal -0.83144023933873 -0.555614190251073 0.0
   outer loop
      vertex -3266.36037259486 -1530.10595092652 -0.0254000012064353
      vertex -3267.20237377951 -1528.8459513103 2.37259527722751
      vertex -3267.20237377951 -1528.8459513103 -0.0254000012064353
   endloop
endfacet
facet normal -0.0 -0.0 1.0
   outer loop
      vertex -3275.15235482776 -1539.01492969056 4.47559099684106
      vertex -3274.47335533127 -1537.74093779275 4.47559099684106
      vertex -3274.67535840626 -1536.99093929275 4.47559099684106
   endloop
endfacet
facet normal -0.0 -0.0 1.0
   outer loop
      vertex -3274.47335533127 -1537.74093779275 4.47559099684106
      vertex -3275.15235482776 -1539.01492969056 4.47559099684106
      vertex -3273.59036149179 -1539.84893528573 4.47559099684106
   endloop
endfacet
facet normal -0.0 -0.0 1.0
   outer loop
      vertex -3274.47335533127 -1537.74093779275 4.47559099684106
      vertex -3273.59036149179 -1539.84893528573 4.47559099684106
      vertex -3273.92436045758 -1538.28993266644 4.47559099684106
   endloop
endfacet
facet normal -0.0 -0.0 1.0
   outer loop
      vertex -3273.92436045758 -1538.28993266644 4.47559099684106
      vertex -3273.59036149179 -1539.84893528573 4.47559099684106
      vertex -3273.17436195758 -1538.49193574143 4.47559099684106
   endloop
endfacet
facet normal -0.0 -0.0 1.0
   outer loop
      vertex -3273.17436195758 -1538.49193574143 4.47559099684106
      vertex -3273.59036149179 -1539.84893528573 4.47559099684106
      vertex -3271.89636463565 -1540.36293419669 4.47559099684106
   endloop
endfacet
facet normal -0.0 -0.0 1.0
   outer loop
      vertex -3273.17436195758 -1538.49193574143 4.47559099684106
      vertex -3271.89636463565 -1540.36293419669 4.47559099684106
      vertex -3272.42436345758 -1538.28993266644 4.47559099684106
   endloop
endfacet
facet normal -0.0 -0.0 1.0
   outer loop
      vertex -3272.42436345758 -1538.28993266644 4.47559099684106
      vertex -3271.89636463565 -1540.36293419669 4.47559099684106
      vertex -3271.87536095451 -1537.74093779275 4.47559099684106
   endloop
endfacet
facet normal -0.0 -0.0 1.0
   outer loop
      vertex -3271.87536095451 -1537.74093779275 4.47559099684106
      vertex -3271.89636463565 -1540.36293419669 4.47559099684106
      vertex -3270.13536657074 -1540.53692982038 4.47559099684106
   endloop
endfacet
facet normal -0.0 -0.0 1.0
   outer loop
      vertex -3271.87536095451 -1537.74093779275 4.47559099684106
      vertex -3270.13536657074 -1540.53692982038 4.47559099684106
      vertex -3271.67436495758 -1536.99093929275 4.47559099684106
   endloop
endfacet
facet normal -0.0 -0.0 1.0
   outer loop
      vertex -3271.67436495758 -1536.99093929275 4.47559099684106
      vertex -3270.13536657074 -1540.53692982038 4.47559099684106
      vertex -3271.47654278243 -1535.15341855373 4.47559099684106
   endloop
endfacet
facet normal -0.0 -0.0 1.0
   outer loop
      vertex -3271.47654278243 -1535.15341855373 4.47559099684106
      vertex -3270.13536657074 -1540.53692982038 4.47559099684106
      vertex -3271.43536702249 -1535.18093772477 4.47559099684106
   endloop
endfacet
facet normal -0.0 -0.0 1.0
   outer loop
      vertex -3271.43536702249 -1535.18093772477 4.47559099684106
      vertex -3270.13536657074 -1540.53692982038 4.47559099684106
      vertex -3271.37700990044 -1535.19251912251 4.47559099684106
   endloop
endfacet
facet normal -0.0 -0.0 1.0
   outer loop
      vertex -3271.37700990044 -1535.19251912251 4.47559099684106
      vertex -3270.13536657074 -1540.53692982038 4.47559099684106
      vertex -3263.99385358524 -1538.09247670148 4.47559099684106
   endloop
endfacet
facet normal -0.0 -0.0 1.0
   outer loop
      vertex -3263.99385358524 -1538.09247670148 4.47559099684106
      vertex -3270.13536657074 -1540.53692982038 4.47559099684106
      vertex -3268.37336905714 -1540.36293419669 4.47559099684106
   endloop
endfacet
facet normal -0.0 -0.0 1.0
   outer loop
      vertex -3263.99385358524 -1538.09247670148 4.47559099684106
      vertex -3268.37336905714 -1540.36293419669 4.47559099684106
      vertex -3266.679372201 -1539.84893528573 4.47559099684106
   endloop
endfacet
facet normal -0.0 -0.0 1.0
   outer loop
      vertex -3263.99385358524 -1538.09247670148 4.47559099684106
      vertex -3266.679372201 -1539.84893528573 4.47559099684106
      vertex -3265.11837831372 -1539.01492969056 4.47559099684106
   endloop
endfacet
facet normal -0.0 -0.0 1.0
   outer loop
      vertex -3271.67436495758 -1536.99093929275 4.47559099684106
      vertex -3271.73236349881 -1535.05293962872 4.47559099684106
      vertex -3271.87536095451 -1536.24094079275 4.47559099684106
   endloop
endfacet
facet normal -0.0 -0.0 1.0
   outer loop
      vertex -3271.73236349881 -1535.05293962872 4.47559099684106
      vertex -3271.67436495758 -1536.99093929275 4.47559099684106
      vertex -3271.47654278243 -1535.15341855373 4.47559099684106
   endloop
endfacet
facet normal -0.0 -0.0 1.0
   outer loop
      vertex -3278.99135166635 -1533.26794716599 4.47559099684106
      vertex -3279.01497222458 -1529.98405633389 4.47559099684106
      vertex -3279.16534729004 -1531.5059496524 4.47559099684106
   endloop
endfacet
facet normal -0.0 -0.0 1.0
   outer loop
      vertex -3279.01497222458 -1529.98405633389 4.47559099684106
      vertex -3278.99135166635 -1533.26794716599 4.47559099684106
      vertex -3272.69732738919 -1534.33600685848 4.47559099684106
   endloop
endfacet
facet normal -0.0 -0.0 1.0
   outer loop
      vertex -3272.69732738919 -1534.33600685848 4.47559099684106
      vertex -3278.99135166635 -1533.26794716599 4.47559099684106
      vertex -3278.47835220407 -1534.96194402213 4.47559099684106
   endloop
endfacet
facet normal -0.0 -0.0 1.0
   outer loop
      vertex -3272.69732738919 -1534.33600685848 4.47559099684106
      vertex -3278.47835220407 -1534.96194402213 4.47559099684106
      vertex -3277.6433547896 -1536.52293790942 4.47559099684106
   endloop
endfacet
facet normal -0.0 -0.0 1.0
   outer loop
      vertex -3272.69732738919 -1534.33600685848 4.47559099684106
      vertex -3277.6433547896 -1536.52293790942 4.47559099684106
      vertex -3276.52035593697 -1537.89193846731 4.47559099684106
   endloop
endfacet
facet normal -0.0 -0.0 1.0
   outer loop
      vertex -3272.69732738919 -1534.33600685848 4.47559099684106
      vertex -3276.52035593697 -1537.89193846731 4.47559099684106
      vertex -3274.47335533127 -1536.24094079275 4.47559099684106
   endloop
endfacet
facet normal -0.0 -0.0 1.0
   outer loop
      vertex -3274.47335533127 -1536.24094079275 4.47559099684106
      vertex -3276.52035593697 -1537.89193846731 4.47559099684106
      vertex -3274.67535840626 -1536.99093929275 4.47559099684106
   endloop
endfacet
facet normal -0.0 -0.0 1.0
   outer loop
      vertex -3274.67535840626 -1536.99093929275 4.47559099684106
      vertex -3276.52035593697 -1537.89193846731 4.47559099684106
      vertex -3275.15235482776 -1539.01492969056 4.47559099684106
   endloop
endfacet
facet normal -0.0 -0.0 1.0
   outer loop
      vertex -3272.69732738919 -1534.33600685848 4.47559099684106
      vertex -3274.47335533127 -1536.24094079275 4.47559099684106
      vertex -3273.92436045758 -1535.69193828968 4.47559099684106
   endloop
endfacet
facet normal -0.0 -0.0 1.0
   outer loop
      vertex -3272.69732738919 -1534.33600685848 4.47559099684106
      vertex -3273.92436045758 -1535.69193828968 4.47559099684106
      vertex -3273.17436195758 -1535.49094229275 4.47559099684106
   endloop
endfacet
facet normal -0.0 -0.0 1.0
   outer loop
      vertex -3272.69732738919 -1534.33600685848 4.47559099684106
      vertex -3273.17436195758 -1535.49094229275 4.47559099684106
      vertex -3272.42436345758 -1535.69193828968 4.47559099684106
   endloop
endfacet
facet normal -0.0 -0.0 1.0
   outer loop
      vertex -3272.69732738919 -1534.33600685848 4.47559099684106
      vertex -3272.42436345758 -1535.69193828968 4.47559099684106
      vertex -3272.61829464931 -1534.39044247959 4.47559099684106
   endloop
endfacet
facet normal -0.0 -0.0 1.0
   outer loop
      vertex -3272.61829464931 -1534.39044247959 4.47559099684106
      vertex -3272.42436345758 -1535.69193828968 4.47559099684106
      vertex -3271.71204646181 -1535.01471643856 4.47559099684106
   endloop
endfacet
facet normal -0.0 -0.0 1.0
   outer loop
      vertex -3271.71204646181 -1535.01471643856 4.47559099684106
      vertex -3272.42436345758 -1535.69193828968 4.47559099684106
      vertex -3271.73236349881 -1535.05293962872 4.47559099684106
   endloop
endfacet
facet normal -0.0 -0.0 1.0
   outer loop
      vertex -3271.73236349881 -1535.05293962872 4.47559099684106
      vertex -3272.42436345758 -1535.69193828968 4.47559099684106
      vertex -3271.87536095451 -1536.24094079275 4.47559099684106
   endloop
endfacet
facet normal -0.957076592946894 -0.289835117322187 0.0
   outer loop
      vertex -3278.99135166635 -1533.26794716599 4.47559099684106
      vertex -3278.47835220407 -1534.96194402213 -0.0254000012064353
      vertex -3278.47835220407 -1534.96194402213 4.47559099684106
   endloop
endfacet
facet normal -0.957076592946894 -0.289835117322187 0.0
   outer loop
      vertex -3278.47835220407 -1534.96194402213 -0.0254000012064353
      vertex -3278.99135166635 -1533.26794716599 4.47559099684106
      vertex -3278.99135166635 -1533.26794716599 -0.0254000012064353
   endloop
endfacet
facet normal -0.965589768138093 -0.260069989939293 -0.0
   outer loop
      vertex -3265.67537640627 -1525.34096106687 4.47559099684106
      vertex -3265.47337333127 -1526.09095956687 -0.025400001206443
      vertex -3265.47337333127 -1526.09095956687 4.47559099684106
   endloop
endfacet
facet normal -0.965589768138093 -0.260069989939293 -0.0
   outer loop
      vertex -3265.47337333127 -1526.09095956687 -0.025400001206443
      vertex -3265.67537640627 -1525.34096106687 4.47559099684106
      vertex -3265.67537640627 -1525.34096106687 -0.025400001206443
   endloop
endfacet
facet normal 0.555613035683363 0.831441010883342 -6.50629371532452e-008
   outer loop
      vertex -3272.61829464931 -1534.39044247959 2.37259527722751
      vertex -3271.43536702249 -1535.18093772477 -0.0254000012064353
      vertex -3272.69535900934 -1534.3389441695 -0.0254000012064353
   endloop
endfacet
facet normal -0.980884161479506 -0.194592553194222 0.0
   outer loop
      vertex -3266.36037259486 -1530.10595092652 2.37259527722751
      vertex -3266.06537501591 -1531.59294746424 -0.0254000012064353
      vertex -3266.06537501591 -1531.59294746424 2.37259527722751
   endloop
endfacet
facet normal -0.980884161479506 -0.194592553194222 0.0
   outer loop
      vertex -3266.06537501591 -1531.59294746424 -0.0254000012064353
      vertex -3266.36037259486 -1530.10595092652 2.37259527722751
      vertex -3266.36037259486 -1530.10595092652 -0.0254000012064353
   endloop
endfacet
facet normal 0.831747287197967 0.555154438187089 -0.0
   outer loop
      vertex -3273.5363607453 -1533.07894455328 2.37259527722751
      vertex -3272.69732738919 -1534.33600685848 2.37259527722751
      vertex -3273.5363607453 -1533.07894455328 -0.0254000012064353
   endloop
endfacet
facet normal 0.831744892936065 0.555158025311159 2.71814715820616e-006
   outer loop
      vertex -3273.5363607453 -1533.07894455328 -0.0254000012064353
      vertex -3272.69732738919 -1534.33600685848 2.37259527722751
      vertex -3272.69535900934 -1534.3389441695 -0.0254000012064353
   endloop
endfacet
facet normal -0.980859172868038 0.194718471133656 0.0
   outer loop
      vertex -3266.06537501591 -1531.59294746424 2.37259527722751
      vertex -3266.36037259486 -1533.07894455328 -0.0254000012064353
      vertex -3266.36037259486 -1533.07894455328 2.37259527722751
   endloop
endfacet
facet normal -0.980859172868038 0.194718471133656 0.0
   outer loop
      vertex -3266.36037259486 -1533.07894455328 -0.0254000012064353
      vertex -3266.06537501591 -1531.59294746424 2.37259527722751
      vertex -3266.06537501591 -1531.59294746424 -0.0254000012064353
   endloop
endfacet
facet normal 0.980732985969818 0.195353039983319 0.0
   outer loop
      vertex -3273.83235777293 -1531.59294746424 -0.0254000012064353
      vertex -3273.5363607453 -1533.07894455328 2.37259527722751
      vertex -3273.5363607453 -1533.07894455328 -0.0254000012064353
   endloop
endfacet
facet normal 0.980732985969818 0.195353039983319 0.0
   outer loop
      vertex -3273.5363607453 -1533.07894455328 2.37259527722751
      vertex -3273.83235777293 -1531.59294746424 -0.0254000012064353
      vertex -3273.83235777293 -1531.59294746424 2.37259527722751
   endloop
endfacet
facet normal -0.831440239338771 0.555614190251012 0.0
   outer loop
      vertex -3266.36037259486 -1533.07894455328 2.37259527722751
      vertex -3267.20237377951 -1534.3389441695 -0.0254000012064353
      vertex -3267.20237377951 -1534.3389441695 2.37259527722751
   endloop
endfacet
facet normal -0.831440239338771 0.555614190251012 0.0
   outer loop
      vertex -3267.20237377951 -1534.3389441695 -0.0254000012064353
      vertex -3266.36037259486 -1533.07894455328 2.37259527722751
      vertex -3266.36037259486 -1533.07894455328 -0.0254000012064353
   endloop
endfacet
facet normal -0.995159681357278 -0.0982710974848736 0.0
   outer loop
      vertex -3279.16534729004 -1531.5059496524 4.47559099684106
      vertex -3278.99135166635 -1533.26794716599 -0.0254000012064353
      vertex -3278.99135166635 -1533.26794716599 4.47559099684106
   endloop
endfacet
facet normal -0.995159681357278 -0.0982710974848736 0.0
   outer loop
      vertex -3278.99135166635 -1533.26794716599 -0.0254000012064353
      vertex -3279.16534729004 -1531.5059496524 4.47559099684106
      vertex -3279.16534729004 -1531.5059496524 -0.0254000012064353
   endloop
endfacet
facet normal -0.555610709974645 0.831442565040708 -0.0
   outer loop
      vertex -3268.46237339574 -1535.18093772477 2.37259527722751
      vertex -3267.20237377951 -1534.3389441695 -0.0254000012064353
      vertex -3268.46237339574 -1535.18093772477 -0.0254000012064353
   endloop
endfacet
facet normal -0.555610709974645 0.831442565040708 -0.0
   outer loop
      vertex -3267.20237377951 -1534.3389441695 -0.0254000012064353
      vertex -3268.46237339574 -1535.18093772477 2.37259527722751
      vertex -3267.20237377951 -1534.3389441695 2.37259527722751
   endloop
endfacet
facet normal -0.995153955790226 0.09832906119284 -1.93266626220655e-018
   outer loop
      vertex -3279.01497222458 -1529.98405633389 4.47559099684106
      vertex -3279.16534729004 -1531.5059496524 -0.0254000012064353
      vertex -3279.16534729004 -1531.5059496524 4.47559099684106
   endloop
endfacet
facet normal -0.995153955790226 0.09832906119284 -1.93266626220655e-018
   outer loop
      vertex -3279.16534729004 -1531.5059496524 -0.0254000012064353
      vertex -3279.01497222458 -1529.98405633389 4.47559099684106
      vertex -3279.01497222458 -1529.98405633389 2.37259527722751
   endloop
endfacet
facet normal 0.634218290791303 -0.773154033568239 1.70893906528551e-006
   outer loop
      vertex -3263.99385358524 -1538.09247670148 2.37259527722751
      vertex -3265.11837831372 -1539.01492969056 -0.0254000012064353
      vertex -3263.74937775583 -1537.89193846731 -0.0254000012064353
   endloop
endfacet
facet normal -0.194723316097957 0.980858211041645 2.57277423320183e-017
   outer loop
      vertex -3268.46237339574 -1535.18093772477 2.37259527722751
      vertex -3268.46237339574 -1535.18093772477 -0.0254000012064353
      vertex -3269.94837048477 -1535.4759429331 -0.0254000012064353
   endloop
endfacet
facet normal -0.995155941775268 0.0983089596597393 0.0
   outer loop
      vertex -3278.99135166635 -1529.74495158749 -0.0254000012064353
      vertex -3279.01497222458 -1529.98405633389 2.37259527722751
      vertex -3278.99135166635 -1529.74495158749 2.37259527722751
   endloop
endfacet
facet normal -0.995154225465083 0.0983263318543472 1.74909201384397e-006
   outer loop
      vertex -3278.99135166635 -1529.74495158749 -0.0254000012064353
      vertex -3279.16534729004 -1531.5059496524 -0.0254000012064353
      vertex -3279.01497222458 -1529.98405633389 2.37259527722751
   endloop
endfacet
facet normal -0.965914715898144 0.258860506086595 -0.0
   outer loop
      vertex -3271.67436495758 -1536.99093929275 4.47559099684106
      vertex -3271.87536095451 -1537.74093779275 -0.0254000012064353
      vertex -3271.87536095451 -1537.74093779275 4.47559099684106
   endloop
endfacet
facet normal -0.965914715898144 0.258860506086595 -0.0
   outer loop
      vertex -3271.87536095451 -1537.74093779275 -0.0254000012064353
      vertex -3271.67436495758 -1536.99093929275 4.47559099684106
      vertex -3271.67436495758 -1536.99093929275 -0.0254000012064353
   endloop
endfacet
facet normal 0.471237192027023 -0.882006524267529 0.0
   outer loop
      vertex -3265.11837831372 -1539.01492969056 4.47559099684106
      vertex -3266.679372201 -1539.84893528573 -0.0254000012064353
      vertex -3265.11837831372 -1539.01492969056 -0.0254000012064353
   endloop
endfacet
facet normal 0.471237192027023 -0.882006524267529 0.0
   outer loop
      vertex -3266.679372201 -1539.84893528573 -0.0254000012064353
      vertex -3265.11837831372 -1539.01492969056 4.47559099684106
      vertex -3266.679372201 -1539.84893528573 4.47559099684106
   endloop
endfacet
facet normal -0.957076592946894 0.289835117322187 0.0
   outer loop
      vertex -3278.47835220407 -1528.05095473135 2.37259527722751
      vertex -3278.99135166635 -1529.74495158749 -0.0254000012064353
      vertex -3278.99135166635 -1529.74495158749 2.37259527722751
   endloop
endfacet
facet normal -0.957076592946894 0.289835117322187 0.0
   outer loop
      vertex -3278.99135166635 -1529.74495158749 -0.0254000012064353
      vertex -3278.47835220407 -1528.05095473135 2.37259527722751
      vertex -3278.47835220407 -1528.05095473135 -0.0254000012064353
   endloop
endfacet
facet normal -0.707101867873751 0.707111694465205 -0.0
   outer loop
      vertex -3272.42436345758 -1538.28993266644 4.47559099684106
      vertex -3271.87536095451 -1537.74093779275 -0.0254000012064353
      vertex -3272.42436345758 -1538.28993266644 -0.0254000012064353
   endloop
endfacet
facet normal -0.707101867873751 0.707111694465205 -0.0
   outer loop
      vertex -3271.87536095451 -1537.74093779275 -0.0254000012064353
      vertex -3272.42436345758 -1538.28993266644 4.47559099684106
      vertex -3271.87536095451 -1537.74093779275 4.47559099684106
   endloop
endfacet
facet normal 0.290352225393513 -0.956919842624781 0.0
   outer loop
      vertex -3266.679372201 -1539.84893528573 4.47559099684106
      vertex -3268.37336905714 -1540.36293419669 -0.0254000012064353
      vertex -3266.679372201 -1539.84893528573 -0.0254000012064353
   endloop
endfacet
facet normal 0.290352225393513 -0.956919842624781 0.0
   outer loop
      vertex -3268.37336905714 -1540.36293419669 -0.0254000012064353
      vertex -3266.679372201 -1539.84893528573 4.47559099684106
      vertex -3268.37336905714 -1540.36293419669 4.47559099684106
   endloop
endfacet
facet normal -0.260069989939293 0.965589768138093 -0.0
   outer loop
      vertex -3273.17436195758 -1538.49193574143 4.47559099684106
      vertex -3272.42436345758 -1538.28993266644 -0.0254000012064353
      vertex -3273.17436195758 -1538.49193574143 -0.0254000012064353
   endloop
endfacet
facet normal -0.260069989939293 0.965589768138093 -0.0
   outer loop
      vertex -3272.42436345758 -1538.28993266644 -0.0254000012064353
      vertex -3273.17436195758 -1538.49193574143 4.47559099684106
      vertex -3272.42436345758 -1538.28993266644 4.47559099684106
   endloop
endfacet
facet normal 0.260069989939293 0.965589768138093 -0.0
   outer loop
      vertex -3273.92436045758 -1538.28993266644 4.47559099684106
      vertex -3273.17436195758 -1538.49193574143 -0.0254000012064353
      vertex -3273.92436045758 -1538.28993266644 -0.0254000012064353
   endloop
endfacet
facet normal 0.260069989939293 0.965589768138093 -0.0
   outer loop
      vertex -3273.17436195758 -1538.49193574143 -0.0254000012064353
      vertex -3273.92436045758 -1538.28993266644 4.47559099684106
      vertex -3273.17436195758 -1538.49193574143 4.47559099684106
   endloop
endfacet
facet normal 0.0982710974848736 -0.995159681357278 0.0
   outer loop
      vertex -3268.37336905714 -1540.36293419669 4.47559099684106
      vertex -3270.13536657074 -1540.53692982038 -0.0254000012064353
      vertex -3268.37336905714 -1540.36293419669 -0.0254000012064353
   endloop
endfacet
facet normal 0.0982710974848736 -0.995159681357278 0.0
   outer loop
      vertex -3270.13536657074 -1540.53692982038 -0.0254000012064353
      vertex -3268.37336905714 -1540.36293419669 4.47559099684106
      vertex -3270.13536657074 -1540.53692982038 4.47559099684106
   endloop
endfacet
facet normal -0.0983263318544975 -0.995154225466605 0.0
   outer loop
      vertex -3270.13536657074 -1540.53692982038 4.47559099684106
      vertex -3271.89636463565 -1540.36293419669 -0.0254000012064353
      vertex -3270.13536657074 -1540.53692982038 -0.0254000012064353
   endloop
endfacet
facet normal -0.0983263318544975 -0.995154225466605 0.0
   outer loop
      vertex -3271.89636463565 -1540.36293419669 -0.0254000012064353
      vertex -3270.13536657074 -1540.53692982038 4.47559099684106
      vertex -3271.89636463565 -1540.36293419669 4.47559099684106
   endloop
endfacet
facet normal -0.290352225393513 -0.956919842624781 0.0
   outer loop
      vertex -3271.89636463565 -1540.36293419669 4.47559099684106
      vertex -3273.59036149179 -1539.84893528573 -0.0254000012064353
      vertex -3271.89636463565 -1540.36293419669 -0.0254000012064353
   endloop
endfacet
facet normal -0.290352225393513 -0.956919842624781 0.0
   outer loop
      vertex -3273.59036149179 -1539.84893528573 -0.0254000012064353
      vertex -3271.89636463565 -1540.36293419669 4.47559099684106
      vertex -3273.59036149179 -1539.84893528573 4.47559099684106
   endloop
endfacet
endsolid rover rear wheel part 1
